<svg id="svg" version="1.1" xmlns="http://www.w3.org/2000/svg" xmlns:xlink="http://www.w3.org/1999/xlink" width="400" height="350.6666666666667" viewBox="0, 0, 400,350.6666666666667"><g id="svgg"><path id="path0" d="M107.920 155.990 C 107.357 156.553,107.022 341.496,107.581 342.954 C 107.975 343.979,112.632 343.647,112.632 342.594 C 112.632 342.222,113.227 342.105,115.121 342.105 C 117.314 342.105,117.631 342.022,117.793 341.404 C 117.954 340.788,118.272 340.702,120.374 340.702 C 122.021 340.702,122.860 340.553,123.053 340.226 C 123.220 339.942,124.249 339.670,125.599 339.551 C 126.967 339.431,128.012 339.151,128.234 338.847 C 128.462 338.535,129.459 338.280,130.840 338.180 C 132.388 338.068,133.209 337.837,133.507 337.430 C 133.821 337.000,134.469 336.842,135.916 336.842 C 137.427 336.842,138.061 336.676,138.596 336.140 C 139.123 335.614,139.766 335.439,141.174 335.439 C 142.604 335.439,143.200 335.272,143.684 334.737 C 144.181 334.188,144.765 334.035,146.370 334.035 C 147.802 334.035,148.395 333.905,148.333 333.605 C 148.274 333.313,149.083 333.098,150.860 332.933 C 152.623 332.770,153.607 332.510,153.881 332.135 C 154.169 331.741,154.866 331.579,156.267 331.579 C 157.778 331.579,158.412 331.413,158.947 330.877 C 159.493 330.332,160.117 330.175,161.751 330.175 C 163.474 330.175,163.933 330.049,164.292 329.474 C 164.654 328.894,165.110 328.772,166.924 328.772 C 168.737 328.772,169.193 328.650,169.555 328.070 C 169.916 327.492,170.373 327.368,172.147 327.368 C 173.633 327.368,174.435 327.205,174.737 326.842 C 174.977 326.553,175.638 326.316,176.206 326.316 C 177.299 326.316,178.600 325.766,179.030 325.123 C 179.171 324.911,179.290 290.935,179.293 249.623 L 179.298 174.508 178.486 173.745 C 177.878 173.174,177.238 172.982,175.939 172.982 C 174.584 172.982,174.108 172.829,173.766 172.281 C 173.396 171.689,172.947 171.579,170.915 171.579 C 168.798 171.579,168.480 171.493,168.319 170.877 C 168.162 170.275,167.841 170.175,166.052 170.175 C 164.414 170.175,163.833 170.025,163.333 169.474 C 162.859 168.950,162.253 168.772,160.938 168.772 C 159.823 168.772,158.953 168.568,158.562 168.215 C 158.213 167.899,157.026 167.574,155.818 167.464 C 154.647 167.358,153.511 167.056,153.293 166.794 C 153.034 166.482,152.119 166.316,150.659 166.316 C 148.987 166.316,148.421 166.193,148.421 165.830 C 148.421 165.213,147.334 164.923,145.000 164.917 C 143.662 164.914,143.158 164.779,143.158 164.424 C 143.158 163.748,142.371 163.509,140.147 163.509 C 138.713 163.509,138.073 163.336,137.544 162.807 C 137.008 162.271,136.374 162.105,134.863 162.105 C 133.444 162.105,132.767 161.945,132.468 161.536 C 132.178 161.140,131.296 160.914,129.550 160.789 C 127.979 160.676,127.075 160.464,127.121 160.217 C 127.166 159.971,126.389 159.786,125.040 159.721 C 123.440 159.644,122.728 159.442,122.266 158.932 C 121.798 158.414,121.186 158.246,119.770 158.246 C 118.363 158.246,117.720 158.071,117.193 157.544 C 116.661 157.012,116.023 156.842,114.561 156.842 C 113.099 156.842,112.461 156.672,111.930 156.140 C 111.066 155.276,108.722 155.188,107.920 155.990 " stroke="none" fill="#3c8cfc" fill-rule="evenodd"></path><path id="path1" d="M330.175 175.439 L 330.175 350.877 334.211 350.877 C 336.667 350.877,338.246 350.740,338.246 350.526 C 338.246 350.333,339.108 350.175,340.163 350.175 C 341.721 350.175,342.151 350.044,342.456 349.474 C 342.777 348.874,343.191 348.772,345.308 348.772 C 347.490 348.772,347.807 348.688,347.969 348.070 C 348.129 347.455,348.447 347.368,350.550 347.368 C 352.220 347.368,353.033 347.221,353.228 346.884 C 353.405 346.579,354.416 346.327,355.953 346.205 C 357.589 346.075,358.530 345.829,358.799 345.461 C 359.064 345.098,359.758 344.912,360.851 344.912 C 362.400 344.912,363.800 344.462,364.218 343.828 C 364.319 343.676,365.334 343.514,366.474 343.467 C 367.927 343.409,368.737 343.193,369.185 342.744 C 369.635 342.295,370.350 342.105,371.594 342.105 C 372.878 342.105,373.569 341.913,374.116 341.404 C 374.695 340.864,375.354 340.702,376.968 340.702 C 378.319 340.702,379.270 340.519,379.635 340.188 C 379.947 339.906,381.144 339.576,382.294 339.455 C 383.445 339.335,384.635 339.013,384.940 338.741 C 385.245 338.468,385.975 338.246,386.563 338.246 C 388.361 338.246,389.825 337.832,389.825 337.325 C 389.825 336.979,390.372 336.830,391.754 336.798 C 392.816 336.774,393.842 336.715,394.035 336.667 C 394.228 336.618,394.544 336.559,394.737 336.535 C 394.930 336.511,395.088 336.254,395.088 335.965 C 395.088 335.547,395.595 335.439,397.544 335.439 L 400.000 335.439 400.000 175.655 L 400.000 15.871 399.211 15.660 C 398.776 15.543,397.649 15.446,396.705 15.443 C 395.553 15.440,394.857 15.257,394.585 14.885 C 394.330 14.536,393.411 14.263,392.090 14.143 C 390.941 14.039,389.739 13.724,389.420 13.445 C 389.079 13.145,387.972 12.905,386.724 12.859 C 385.304 12.808,384.390 12.585,383.943 12.181 C 383.480 11.762,382.676 11.579,381.301 11.579 C 379.682 11.579,379.255 11.452,378.947 10.877 C 378.636 10.295,378.213 10.175,376.464 10.175 C 374.842 10.175,374.183 10.014,373.603 9.474 C 373.069 8.976,372.365 8.772,371.183 8.772 C 370.265 8.772,369.416 8.611,369.295 8.415 C 369.173 8.219,368.927 8.150,368.748 8.261 C 368.568 8.372,368.421 8.253,368.421 7.998 C 368.421 7.674,367.759 7.501,366.228 7.425 C 365.022 7.366,363.798 7.103,363.509 6.842 C 363.219 6.580,362.131 6.269,361.090 6.150 C 360.049 6.031,358.869 5.704,358.468 5.423 C 358.042 5.125,356.928 4.912,355.789 4.912 C 354.274 4.912,353.706 4.756,353.239 4.211 C 352.753 3.642,352.204 3.509,350.354 3.509 C 348.803 3.509,348.098 3.378,348.158 3.101 C 348.274 2.562,346.908 2.183,344.690 2.140 C 343.260 2.112,342.854 1.973,342.722 1.466 C 342.587 0.951,342.151 0.810,340.488 0.744 C 339.351 0.699,338.368 0.513,338.304 0.331 C 338.240 0.149,336.385 0.000,334.181 0.000 L 330.175 0.000 330.175 175.439 " stroke="none" fill="#7ce4dc" fill-rule="evenodd"></path><path id="path2" d="M373.684 9.110 C 373.684 9.310,373.908 9.474,374.181 9.474 C 374.455 9.474,374.758 9.671,374.855 9.912 C 374.989 10.243,375.039 10.246,375.060 9.925 C 375.075 9.690,374.772 9.329,374.386 9.123 C 373.910 8.868,373.684 8.864,373.684 9.110 M288.999 110.910 C 288.672 111.377,287.969 111.556,286.125 111.641 C 284.055 111.737,283.692 111.848,283.733 112.368 C 283.774 112.889,283.469 112.982,281.733 112.982 C 280.335 112.982,279.595 113.140,279.403 113.478 C 279.222 113.798,278.375 114.010,277.018 114.077 C 275.860 114.134,274.722 114.319,274.489 114.489 C 274.256 114.658,273.912 114.702,273.724 114.586 C 273.536 114.470,273.268 114.559,273.128 114.785 C 272.959 115.059,273.027 115.102,273.333 114.912 C 273.637 114.724,273.708 114.765,273.542 115.034 C 273.405 115.256,272.485 115.439,271.498 115.439 C 270.303 115.439,269.485 115.637,269.046 116.035 C 268.303 116.707,267.938 116.791,265.369 116.884 C 264.365 116.920,263.555 117.044,263.568 117.159 C 263.674 118.095,263.377 118.246,261.432 118.246 C 259.038 118.246,258.246 118.473,258.246 119.160 C 258.246 119.531,257.659 119.649,255.815 119.649 C 254.149 119.649,253.222 119.811,252.870 120.162 C 252.588 120.444,251.511 120.744,250.477 120.828 C 249.443 120.911,248.557 121.016,248.509 121.060 C 248.461 121.104,248.257 121.160,248.057 121.184 C 247.857 121.208,247.575 121.420,247.430 121.655 C 247.281 121.896,246.291 122.111,245.162 122.148 C 244.060 122.184,243.158 122.347,243.158 122.510 C 243.158 122.673,242.912 122.807,242.611 122.807 C 242.310 122.807,242.161 122.965,242.281 123.158 C 242.416 123.377,241.700 123.509,240.372 123.509 C 239.202 123.509,238.246 123.628,238.246 123.774 C 238.246 124.294,236.284 124.881,234.300 124.956 C 233.191 124.998,232.361 125.109,232.455 125.203 C 232.972 125.721,231.649 126.316,229.982 126.316 C 228.795 126.316,227.930 126.507,227.594 126.842 C 226.955 127.481,226.526 127.534,226.889 126.930 C 227.098 126.582,227.042 126.580,226.622 126.920 C 226.331 127.156,225.324 127.424,224.386 127.516 C 223.348 127.617,222.560 127.896,222.375 128.227 C 222.208 128.527,221.764 128.772,221.389 128.772 C 220.717 128.772,220.708 129.773,220.703 204.737 L 220.699 280.702 222.240 280.702 C 223.493 280.702,223.773 280.817,223.733 281.316 C 223.692 281.836,224.085 281.957,226.316 282.105 C 228.303 282.238,228.947 282.406,228.947 282.791 C 228.947 283.172,229.523 283.331,231.228 283.422 C 233.897 283.563,234.511 283.725,234.212 284.208 C 234.092 284.402,234.200 284.580,234.453 284.602 C 234.706 284.624,235.070 284.679,235.263 284.724 C 235.456 284.769,236.531 284.829,237.652 284.859 C 238.773 284.888,239.603 285.054,239.496 285.226 C 239.207 285.695,240.276 286.029,242.632 286.206 C 243.879 286.299,244.896 286.568,245.126 286.866 C 245.395 287.212,246.239 287.368,247.846 287.368 C 249.603 287.368,250.175 287.488,250.175 287.857 C 250.175 288.478,250.939 288.771,252.573 288.777 C 254.349 288.783,255.508 289.138,255.324 289.617 C 255.219 289.890,255.921 290.049,257.497 290.112 C 259.168 290.178,259.973 290.373,260.351 290.804 C 260.694 291.195,261.548 291.447,262.807 291.528 C 264.985 291.668,265.376 291.814,265.039 292.359 C 264.899 292.586,264.967 292.639,265.209 292.490 C 265.432 292.352,265.811 292.362,266.053 292.513 C 266.294 292.663,267.343 292.842,268.383 292.909 C 269.424 292.977,270.501 293.258,270.777 293.533 C 271.099 293.856,272.024 294.035,273.370 294.035 C 275.032 294.035,275.513 294.161,275.713 294.649 C 275.989 295.323,275.936 295.311,278.947 295.386 C 280.801 295.432,281.053 295.522,281.053 296.140 C 281.053 296.779,281.287 296.842,283.672 296.842 C 285.954 296.842,286.341 296.935,286.676 297.562 C 287.163 298.472,292.094 298.536,292.439 297.637 C 292.771 296.773,292.650 111.175,292.318 111.381 C 291.977 111.591,291.131 110.740,291.407 110.465 C 291.501 110.370,291.096 110.292,290.505 110.292 C 289.878 110.292,289.252 110.549,288.999 110.910 M395.242 335.824 C 394.938 336.315,395.704 336.491,396.095 336.020 C 396.386 335.669,396.349 335.556,395.944 335.556 C 395.649 335.556,395.333 335.676,395.242 335.824 " stroke="none" fill="#04ccd4" fill-rule="evenodd"></path><path id="path3" d="M0.000 175.439 L 0.000 334.035 1.579 334.035 C 2.749 334.035,3.158 333.899,3.158 333.509 C 3.158 333.108,3.599 332.981,5.000 332.978 C 7.334 332.972,8.421 332.681,8.421 332.064 C 8.421 331.701,8.994 331.579,10.705 331.579 C 12.555 331.579,13.104 331.446,13.590 330.877 C 14.072 330.314,14.625 330.175,16.391 330.175 C 18.211 330.175,18.666 330.054,19.029 329.474 C 19.391 328.894,19.847 328.772,21.660 328.772 C 23.474 328.772,23.930 328.650,24.292 328.070 C 24.653 327.492,25.110 327.368,26.884 327.368 C 28.370 327.368,29.172 327.205,29.474 326.842 C 29.739 326.523,30.507 326.316,31.430 326.316 C 32.990 326.316,34.737 325.730,34.737 325.207 C 34.737 325.045,35.660 324.912,36.788 324.912 C 38.393 324.912,38.977 324.760,39.474 324.211 C 39.973 323.659,40.554 323.509,42.192 323.509 C 43.981 323.509,44.302 323.409,44.460 322.807 C 44.622 322.186,44.938 322.105,47.193 322.105 C 49.448 322.105,49.764 322.024,49.926 321.404 C 50.088 320.785,50.405 320.702,52.599 320.702 C 54.487 320.702,55.088 320.584,55.088 320.215 C 55.088 319.859,55.757 319.691,57.582 319.587 C 59.395 319.485,60.194 319.285,60.508 318.857 C 60.814 318.438,61.530 318.248,62.981 318.200 C 64.432 318.153,65.212 317.946,65.670 317.488 C 66.125 317.033,66.834 316.842,68.070 316.842 L 69.825 316.842 69.825 175.652 C 69.825 47.228,69.774 34.442,69.270 34.248 C 68.964 34.131,68.105 34.035,67.360 34.035 C 66.615 34.035,65.483 33.738,64.845 33.376 C 64.206 33.013,62.980 32.697,62.119 32.673 C 61.129 32.646,60.446 32.438,60.259 32.105 C 60.042 31.716,59.329 31.579,57.526 31.579 C 55.684 31.579,55.088 31.460,55.088 31.094 C 55.088 30.476,54.001 30.186,51.667 30.180 C 50.328 30.177,49.825 30.042,49.825 29.687 C 49.825 28.999,49.033 28.772,46.638 28.772 C 45.097 28.772,44.561 28.646,44.561 28.283 C 44.561 27.604,43.773 27.368,41.501 27.368 C 40.108 27.368,39.432 27.206,39.135 26.800 C 38.854 26.415,37.991 26.178,36.465 26.066 C 35.204 25.974,34.102 25.710,33.964 25.467 C 33.823 25.219,32.854 24.999,31.694 24.952 C 30.581 24.907,29.493 24.723,29.276 24.543 C 29.060 24.364,28.766 24.334,28.623 24.477 C 28.480 24.620,28.415 24.500,28.480 24.211 C 28.571 23.798,28.152 23.661,26.544 23.578 C 25.183 23.507,24.268 23.263,23.826 22.851 C 23.402 22.456,22.503 22.201,21.347 22.148 C 20.184 22.095,19.223 21.821,18.667 21.384 C 18.047 20.896,17.250 20.702,15.869 20.702 C 14.493 20.702,13.817 20.538,13.521 20.133 C 13.240 19.748,12.377 19.511,10.851 19.400 C 9.422 19.295,8.494 19.053,8.316 18.740 C 8.117 18.389,7.328 18.246,5.597 18.246 C 3.392 18.246,3.158 18.178,3.158 17.544 C 3.158 16.946,2.924 16.842,1.579 16.842 L 0.000 16.842 0.000 175.439 M262.617 117.567 C 262.245 118.169,262.578 118.228,263.313 117.691 C 263.882 117.274,263.900 117.193,263.421 117.193 C 263.106 117.193,262.744 117.361,262.617 117.567 M257.719 118.947 C 257.370 119.333,257.231 119.649,257.411 119.649 C 257.592 119.649,258.009 119.333,258.340 118.947 C 258.670 118.561,258.809 118.246,258.647 118.246 C 258.486 118.246,258.069 118.561,257.719 118.947 M163.300 169.423 C 164.043 170.259,164.211 170.335,164.211 169.837 C 164.211 169.651,163.855 169.312,163.421 169.084 C 162.636 168.672,162.635 168.674,163.300 169.423 M168.321 170.883 C 168.421 171.266,168.721 171.579,168.988 171.579 C 169.692 171.579,169.583 170.961,168.806 170.545 C 168.239 170.241,168.166 170.292,168.321 170.883 M280.000 295.571 C 280.000 295.644,280.237 295.900,280.526 296.140 C 280.957 296.498,281.053 296.474,281.053 296.008 C 281.053 295.695,280.816 295.439,280.526 295.439 C 280.237 295.439,280.000 295.498,280.000 295.571 M285.565 297.556 C 286.439 298.284,287.209 298.488,286.842 297.895 C 286.723 297.702,286.398 297.544,286.120 297.544 C 285.842 297.544,285.614 297.386,285.614 297.193 C 285.614 297.000,285.417 296.847,285.175 296.854 C 284.934 296.860,285.110 297.176,285.565 297.556 M148.261 333.309 C 147.909 333.878,148.673 334.051,149.126 333.505 C 149.479 333.080,149.457 332.982,149.011 332.982 C 148.709 332.982,148.372 333.129,148.261 333.309 " stroke="none" fill="#2c5cb4" fill-rule="evenodd"></path><path id="path4" d="M374.045 341.390 C 373.761 341.569,373.615 341.802,373.720 341.907 C 373.825 342.012,374.215 341.868,374.587 341.586 C 375.327 341.027,374.877 340.864,374.045 341.390 M342.472 349.444 C 342.201 349.951,342.195 350.175,342.455 350.175 C 342.880 350.175,343.343 349.191,343.054 348.902 C 342.950 348.797,342.688 349.041,342.472 349.444 " stroke="none" fill="#5cd0f0" fill-rule="evenodd"></path></g></svg>