<svg id="svg" version="1.1" xmlns="http://www.w3.org/2000/svg" xmlns:xlink="http://www.w3.org/1999/xlink" width="400" height="411.7255163224517" viewBox="0, 0, 400,411.7255163224517"><g id="svgg"><path id="path0" d="M88.474 1.711 C 87.815 2.482,87.182 3.063,87.069 3.002 C 86.955 2.942,86.895 2.998,86.935 3.128 C 87.043 3.474,80.040 11.463,79.821 11.245 C 79.719 11.143,79.676 11.187,79.725 11.344 C 79.841 11.716,78.186 13.607,77.951 13.372 C 77.852 13.272,77.810 13.319,77.859 13.476 C 77.975 13.848,76.321 15.739,76.086 15.504 C 75.986 15.404,75.945 15.449,75.994 15.603 C 76.112 15.975,72.859 19.739,72.624 19.504 C 72.523 19.403,72.481 19.456,72.529 19.622 C 72.647 20.023,69.136 24.005,68.873 23.768 C 68.761 23.667,68.748 23.722,68.844 23.891 C 68.941 24.060,68.611 24.555,68.106 24.998 C 67.604 25.439,67.250 25.856,67.319 25.925 C 67.388 25.994,66.870 26.564,66.167 27.192 C 65.465 27.820,65.070 28.244,65.290 28.133 C 65.510 28.023,65.210 28.399,64.624 28.970 C 64.037 29.541,63.535 30.098,63.507 30.208 C 63.387 30.673,61.858 32.191,61.675 32.026 C 61.564 31.927,61.554 31.985,61.651 32.156 C 61.754 32.335,61.346 32.890,60.695 33.461 C 60.071 34.007,59.740 34.366,59.960 34.258 C 60.180 34.150,59.823 34.582,59.166 35.219 C 58.510 35.855,58.007 36.412,58.049 36.456 C 58.221 36.636,56.530 38.322,56.345 38.155 C 56.234 38.056,56.222 38.112,56.317 38.279 C 56.413 38.447,56.025 39.004,55.450 39.523 C 54.878 40.040,54.463 40.517,54.529 40.583 C 54.594 40.648,54.194 41.101,53.640 41.590 C 53.085 42.078,52.659 42.566,52.693 42.675 C 52.726 42.784,52.247 43.317,51.627 43.860 C 51.007 44.403,50.680 44.761,50.899 44.656 C 51.119 44.551,50.700 45.035,49.967 45.732 C 49.234 46.429,48.814 46.909,49.034 46.800 C 49.254 46.690,48.834 47.164,48.101 47.852 C 47.368 48.540,46.949 49.019,47.169 48.917 C 47.388 48.814,47.029 49.234,46.369 49.849 C 45.710 50.465,45.198 51.066,45.231 51.185 C 45.265 51.304,44.846 51.784,44.299 52.250 C 43.752 52.716,43.484 53.001,43.704 52.881 C 43.924 52.762,43.684 53.147,43.171 53.737 C 42.658 54.327,42.130 54.751,41.997 54.679 C 41.865 54.607,41.836 54.676,41.933 54.833 C 42.030 54.990,41.599 55.566,40.975 56.112 C 40.351 56.659,40.020 57.020,40.240 56.915 C 40.460 56.809,40.040 57.293,39.307 57.990 C 38.574 58.687,38.155 59.164,38.374 59.051 C 38.594 58.938,38.277 59.328,37.670 59.919 C 37.062 60.510,36.618 61.046,36.682 61.110 C 36.746 61.174,36.224 61.741,35.521 62.369 C 34.819 62.997,34.424 63.424,34.644 63.317 C 34.863 63.210,34.444 63.686,33.711 64.374 C 32.978 65.063,32.558 65.540,32.778 65.434 C 32.998 65.329,32.698 65.702,32.112 66.264 C 31.526 66.826,31.073 67.366,31.105 67.465 C 31.138 67.564,30.718 68.039,30.173 68.519 C 29.627 69.000,29.208 69.482,29.242 69.590 C 29.275 69.699,28.796 70.232,28.176 70.775 C 27.556 71.319,27.229 71.675,27.448 71.567 C 27.668 71.460,27.368 71.831,26.782 72.393 C 26.196 72.954,25.716 73.519,25.716 73.647 C 25.716 73.775,25.177 74.359,24.517 74.945 C 23.857 75.532,23.498 75.929,23.718 75.829 C 23.937 75.730,23.518 76.211,22.785 76.899 C 22.052 77.588,21.632 78.065,21.852 77.959 C 22.072 77.854,21.772 78.227,21.186 78.789 C 20.600 79.350,20.148 79.896,20.183 80.002 C 20.218 80.107,19.768 80.578,19.184 81.047 C 18.599 81.517,18.121 82.055,18.121 82.243 C 18.121 82.431,17.703 82.904,17.191 83.294 C 16.680 83.684,16.321 84.101,16.395 84.220 C 16.468 84.339,15.989 84.879,15.329 85.419 C 14.669 85.960,14.187 86.495,14.257 86.609 C 14.328 86.723,13.964 87.137,13.450 87.529 C 12.936 87.922,12.578 88.344,12.655 88.468 C 12.731 88.592,12.313 89.075,11.726 89.540 C 11.138 90.006,10.720 90.488,10.797 90.612 C 10.873 90.736,10.515 91.159,10.001 91.551 C 9.487 91.944,9.125 92.361,9.198 92.478 C 9.270 92.595,8.849 93.072,8.261 93.538 C 7.673 94.003,7.255 94.485,7.332 94.610 C 7.409 94.734,7.053 95.154,6.542 95.544 C 6.031 95.934,5.639 96.333,5.671 96.431 C 5.703 96.529,4.804 97.550,3.674 98.699 C 2.543 99.849,1.644 100.889,1.675 101.011 C 1.706 101.133,1.312 101.595,0.799 102.038 L -0.133 102.843 65.823 102.844 L 131.779 102.844 134.444 99.734 C 135.909 98.023,139.992 93.321,143.517 89.285 C 149.207 82.767,161.130 69.049,179.187 48.244 C 187.015 39.225,187.534 38.655,187.741 38.863 C 187.839 38.961,187.879 38.908,187.830 38.746 C 187.714 38.360,190.957 34.617,191.199 34.858 C 191.300 34.960,191.344 34.915,191.295 34.759 C 191.179 34.387,192.833 32.495,193.068 32.731 C 193.168 32.830,193.209 32.776,193.160 32.610 C 193.044 32.216,199.745 24.484,199.990 24.729 C 200.093 24.832,200.138 24.789,200.089 24.632 C 199.969 24.250,201.628 22.375,201.883 22.604 C 201.994 22.704,202.005 22.647,201.909 22.479 C 201.812 22.309,202.151 21.806,202.670 21.351 C 203.185 20.899,203.597 20.461,203.586 20.377 C 203.546 20.068,205.153 18.433,205.327 18.607 C 205.426 18.706,205.467 18.655,205.419 18.493 C 205.316 18.151,208.522 14.362,208.765 14.539 C 208.854 14.604,208.870 14.580,208.801 14.486 C 208.731 14.392,209.301 13.600,210.066 12.728 C 210.832 11.855,211.679 10.883,211.949 10.567 C 212.218 10.252,212.348 10.173,212.239 10.393 C 212.122 10.628,212.140 10.701,212.282 10.571 C 212.416 10.449,212.525 10.262,212.525 10.155 C 212.525 9.780,213.934 8.293,214.116 8.476 C 214.218 8.578,214.262 8.528,214.213 8.366 C 214.097 7.981,217.340 4.237,217.581 4.479 C 217.683 4.580,217.726 4.536,217.677 4.379 C 217.558 3.997,219.216 2.122,219.471 2.351 C 219.582 2.450,219.597 2.399,219.505 2.237 C 219.412 2.075,219.633 1.665,219.995 1.325 C 220.357 0.985,220.653 0.608,220.653 0.487 C 220.653 0.366,191.183 0.276,155.163 0.288 L 89.674 0.310 88.474 1.711 M221.763 0.481 C 221.812 0.599,223.711 2.831,225.983 5.440 C 228.254 8.050,230.073 10.322,230.024 10.489 C 229.976 10.656,230.019 10.710,230.120 10.608 C 230.362 10.367,233.605 14.110,233.489 14.495 C 233.440 14.658,233.483 14.707,233.585 14.605 C 233.807 14.383,237.074 18.091,236.969 18.446 C 236.928 18.582,236.988 18.645,237.102 18.584 C 237.216 18.524,237.728 18.958,238.241 19.548 C 238.754 20.137,238.994 20.520,238.774 20.398 C 238.554 20.276,238.885 20.623,239.509 21.170 C 240.160 21.740,240.568 22.296,240.465 22.474 C 240.368 22.645,240.378 22.704,240.489 22.604 C 240.724 22.393,242.407 24.235,242.299 24.585 C 242.258 24.716,242.318 24.774,242.432 24.714 C 242.545 24.653,243.058 25.087,243.571 25.677 C 244.084 26.267,244.324 26.649,244.104 26.527 C 243.884 26.405,244.215 26.752,244.839 27.299 C 245.463 27.845,245.894 28.421,245.797 28.578 C 245.700 28.735,245.729 28.804,245.862 28.732 C 245.994 28.660,246.522 29.084,247.035 29.674 C 247.548 30.264,247.788 30.647,247.568 30.525 C 247.348 30.402,247.684 30.754,248.314 31.305 C 248.944 31.857,249.406 32.362,249.341 32.427 C 249.276 32.491,249.720 33.028,250.328 33.619 C 250.935 34.209,251.252 34.604,251.033 34.496 C 250.813 34.388,251.140 34.744,251.760 35.287 C 252.380 35.830,252.860 36.358,252.826 36.460 C 252.792 36.562,253.245 37.105,253.831 37.667 C 254.417 38.229,254.717 38.596,254.497 38.483 C 254.277 38.370,254.697 38.848,255.430 39.545 C 256.163 40.242,256.582 40.726,256.362 40.620 C 256.143 40.515,256.473 40.876,257.097 41.423 C 257.749 41.993,258.156 42.549,258.054 42.727 C 257.956 42.898,257.968 42.955,258.082 42.853 C 258.281 42.673,259.694 44.145,259.694 44.532 C 259.694 44.639,259.803 44.826,259.936 44.948 C 260.080 45.079,260.093 45.006,259.969 44.770 C 259.854 44.550,260.165 44.847,260.659 45.429 C 261.154 46.011,261.519 46.611,261.470 46.761 C 261.421 46.912,261.463 46.954,261.562 46.855 C 261.797 46.619,263.452 48.511,263.336 48.883 C 263.287 49.039,263.328 49.086,263.427 48.987 C 263.663 48.751,265.317 50.643,265.201 51.015 C 265.152 51.171,265.195 51.216,265.297 51.114 C 265.399 51.012,265.799 51.305,266.186 51.765 C 266.572 52.224,266.831 52.607,266.761 52.616 C 266.691 52.625,267.170 53.152,267.827 53.789 C 268.483 54.425,268.841 54.855,268.621 54.743 C 268.401 54.632,268.761 55.049,269.420 55.670 C 270.080 56.292,270.440 56.716,270.220 56.613 C 270.000 56.510,270.420 56.989,271.153 57.678 C 271.885 58.366,272.305 58.841,272.085 58.734 C 271.865 58.626,272.225 59.047,272.885 59.668 C 273.544 60.289,273.904 60.715,273.684 60.616 C 273.464 60.516,273.860 60.941,274.563 61.561 C 275.266 62.181,275.789 62.741,275.724 62.806 C 275.659 62.871,276.103 63.408,276.710 63.998 C 277.318 64.589,277.635 64.980,277.415 64.866 C 277.195 64.753,277.615 65.230,278.348 65.927 C 279.081 66.624,279.500 67.105,279.280 66.997 C 279.061 66.888,279.420 67.308,280.080 67.929 C 280.740 68.550,281.099 68.968,280.879 68.858 C 280.660 68.748,281.079 69.228,281.812 69.925 C 282.545 70.621,282.965 71.103,282.745 70.994 C 282.525 70.886,282.885 71.305,283.544 71.926 C 284.204 72.547,284.564 72.967,284.344 72.859 C 284.124 72.751,284.484 73.170,285.143 73.792 C 285.803 74.413,286.163 74.839,285.943 74.738 C 285.723 74.638,286.083 75.035,286.742 75.621 C 287.402 76.207,287.941 76.795,287.941 76.928 C 287.941 77.061,288.361 77.565,288.874 78.048 C 289.387 78.531,289.627 78.839,289.407 78.732 C 289.187 78.625,289.667 79.162,290.473 79.926 C 291.279 80.689,291.759 81.226,291.539 81.119 C 291.319 81.011,291.679 81.432,292.338 82.053 C 292.998 82.674,293.358 83.094,293.138 82.986 C 292.918 82.877,293.278 83.297,293.937 83.918 C 294.597 84.539,294.957 84.966,294.737 84.866 C 294.517 84.766,294.908 85.187,295.605 85.802 C 296.302 86.417,296.793 87.049,296.696 87.205 C 296.599 87.362,296.628 87.432,296.761 87.360 C 296.894 87.288,297.422 87.712,297.935 88.302 C 298.448 88.892,298.688 89.274,298.468 89.152 C 298.248 89.030,298.575 89.374,299.195 89.917 C 299.815 90.461,300.295 90.988,300.261 91.090 C 300.227 91.192,300.680 91.735,301.266 92.297 C 301.852 92.859,302.152 93.233,301.932 93.128 C 301.712 93.024,301.983 93.322,302.534 93.792 C 303.085 94.262,303.478 94.740,303.408 94.853 C 303.338 94.967,303.755 95.442,304.335 95.908 C 304.915 96.374,305.361 96.855,305.326 96.977 C 305.292 97.100,305.803 97.703,306.462 98.319 C 307.122 98.934,307.482 99.355,307.262 99.253 C 307.042 99.151,307.313 99.452,307.864 99.921 C 308.415 100.391,308.806 100.873,308.733 100.991 C 308.612 101.186,310.225 102.598,310.568 102.598 C 310.648 102.598,311.525 101.655,312.518 100.501 C 313.511 99.348,317.392 94.881,321.142 90.574 C 324.892 86.268,333.747 76.089,340.821 67.955 C 382.782 19.698,382.059 20.522,382.271 20.734 C 382.373 20.836,382.416 20.786,382.367 20.624 C 382.257 20.256,387.196 14.496,387.535 14.597 C 387.670 14.637,387.721 14.573,387.648 14.455 C 387.486 14.193,390.680 10.499,390.987 10.593 C 391.108 10.630,391.176 10.554,391.139 10.425 C 391.046 10.097,397.894 2.249,398.195 2.338 C 398.330 2.379,398.376 2.306,398.296 2.177 C 398.216 2.048,398.447 1.665,398.809 1.325 C 399.171 0.985,399.467 0.608,399.467 0.487 C 399.467 0.366,359.464 0.266,310.571 0.266 C 261.678 0.266,221.714 0.363,221.763 0.481 M89.359 206.170 C 89.565 206.376,87.924 208.289,87.622 208.195 C 87.505 208.158,87.438 208.226,87.475 208.346 C 87.575 208.673,85.888 210.516,85.679 210.307 C 85.580 210.208,85.539 210.252,85.587 210.406 C 85.693 210.738,84.342 212.415,84.107 212.244 C 84.017 212.179,84.001 212.202,84.071 212.297 C 84.260 212.551,82.553 214.405,82.226 214.302 C 82.072 214.253,82.033 214.300,82.139 214.407 C 82.362 214.629,80.751 216.557,80.427 216.456 C 80.309 216.419,80.243 216.487,80.280 216.607 C 80.380 216.934,78.693 218.777,78.484 218.568 C 78.385 218.469,78.342 218.508,78.388 218.654 C 78.508 219.031,77.245 220.662,76.966 220.489 C 76.839 220.411,76.769 220.454,76.809 220.585 C 76.914 220.925,75.236 222.782,75.020 222.566 C 74.920 222.466,74.879 222.512,74.928 222.666 C 75.051 223.056,70.081 228.802,69.716 228.692 C 69.553 228.643,69.508 228.690,69.614 228.797 C 69.865 229.048,68.204 230.941,67.835 230.824 C 67.681 230.775,67.642 230.822,67.749 230.929 C 67.971 231.151,66.360 233.079,66.036 232.978 C 65.919 232.941,65.853 233.007,65.889 233.125 C 65.999 233.476,62.699 237.157,62.453 236.959 C 62.328 236.858,62.312 236.883,62.419 237.014 C 62.659 237.308,61.027 239.208,60.640 239.085 C 60.486 239.036,60.446 239.082,60.551 239.187 C 60.656 239.292,60.058 240.172,59.222 241.142 C 55.352 245.629,53.596 247.512,53.432 247.347 C 53.334 247.249,53.293 247.297,53.342 247.453 C 53.458 247.825,51.804 249.716,51.569 249.481 C 51.469 249.382,51.428 249.429,51.477 249.585 C 51.593 249.957,49.938 251.848,49.703 251.613 C 49.604 251.514,49.563 251.565,49.611 251.727 C 49.728 252.113,46.484 255.856,46.243 255.615 C 46.141 255.513,46.098 255.558,46.147 255.714 C 46.263 256.086,44.609 257.978,44.373 257.742 C 44.274 257.643,44.233 257.697,44.282 257.863 C 44.408 258.290,32.175 272.416,31.869 272.197 C 31.783 272.136,31.768 272.161,31.836 272.254 C 31.904 272.346,31.575 272.865,31.103 273.407 C 30.632 273.949,29.055 275.761,27.598 277.436 C 26.142 279.110,24.853 280.450,24.734 280.413 C 24.614 280.376,24.547 280.444,24.584 280.564 C 24.684 280.892,22.996 282.734,22.788 282.526 C 22.688 282.426,22.647 282.478,22.696 282.640 C 22.801 282.990,19.463 286.905,19.142 286.809 C 19.020 286.772,18.951 286.838,18.987 286.955 C 19.090 287.283,17.672 288.869,17.462 288.659 C 17.361 288.558,17.317 288.610,17.366 288.776 C 17.481 289.166,13.974 293.165,13.730 292.922 C 13.629 292.821,13.586 292.866,13.635 293.023 C 13.751 293.395,12.097 295.286,11.862 295.051 C 11.762 294.951,11.721 295.003,11.770 295.165 C 11.886 295.550,8.643 299.294,8.402 299.052 C 8.300 298.951,8.257 299.000,8.306 299.162 C 8.354 299.324,7.375 300.628,6.129 302.061 C 4.883 303.493,3.125 305.519,2.223 306.563 L 0.581 308.461 66.180 308.533 L 131.779 308.605 132.897 307.431 C 133.513 306.785,134.101 306.333,134.206 306.426 C 134.310 306.519,134.325 306.470,134.237 306.316 C 134.035 305.959,137.379 302.173,137.681 302.416 C 137.806 302.516,137.824 302.495,137.722 302.368 C 137.514 302.110,140.691 298.296,141.026 298.401 C 141.143 298.438,141.209 298.363,141.173 298.234 C 141.136 298.106,142.545 296.348,144.304 294.328 C 146.063 292.308,147.968 290.104,148.537 289.431 C 149.107 288.758,149.706 288.248,149.870 288.297 C 150.033 288.346,150.079 288.298,149.973 288.192 C 149.750 287.969,151.361 286.042,151.685 286.143 C 151.803 286.179,151.869 286.113,151.832 285.996 C 151.730 285.668,155.016 281.954,155.224 282.162 C 155.325 282.263,155.368 282.217,155.319 282.061 C 155.203 281.689,156.857 279.797,157.092 280.033 C 157.192 280.132,157.233 280.088,157.184 279.934 C 157.065 279.561,158.451 277.927,158.687 278.163 C 158.789 278.264,158.832 278.214,158.783 278.050 C 158.666 277.658,167.234 267.789,167.478 268.034 C 167.582 268.137,167.626 268.093,167.577 267.937 C 167.461 267.565,169.115 265.673,169.351 265.909 C 169.450 266.008,169.491 265.963,169.443 265.809 C 169.325 265.437,172.577 261.673,172.813 261.909 C 172.913 262.010,172.956 261.964,172.907 261.807 C 172.788 261.425,174.446 259.550,174.701 259.779 C 174.812 259.879,174.831 259.834,174.743 259.680 C 174.578 259.388,186.562 245.370,186.848 245.520 C 186.900 245.547,186.916 245.523,186.883 245.466 C 186.774 245.275,190.100 241.572,190.321 241.639 C 190.441 241.676,190.510 241.603,190.473 241.477 C 190.373 241.135,193.650 237.443,193.864 237.657 C 193.965 237.758,194.008 237.708,193.960 237.546 C 193.849 237.179,198.788 231.418,199.127 231.519 C 199.263 231.559,199.312 231.493,199.238 231.373 C 199.057 231.080,202.427 227.299,202.660 227.533 C 202.761 227.633,202.803 227.587,202.754 227.430 C 202.638 227.059,204.292 225.167,204.527 225.402 C 204.627 225.502,204.668 225.450,204.619 225.286 C 204.570 225.123,205.909 223.387,207.595 221.427 C 212.144 216.138,213.128 215.082,213.324 215.278 C 213.422 215.376,213.462 215.318,213.413 215.149 C 213.334 214.875,215.283 212.473,218.778 208.536 C 219.433 207.798,220.204 206.925,220.491 206.595 L 221.014 205.994 155.102 205.997 C 118.850 205.999,89.265 206.076,89.359 206.170 " stroke="none" fill="#eb3324" fill-rule="evenodd"></path><path id="path1" d="M0.311 103.123 C 0.395 103.369,3.292 106.739,11.992 116.713 C 14.117 119.149,16.947 122.397,18.281 123.929 C 23.650 130.101,28.634 135.821,33.825 141.772 C 36.830 145.217,40.855 149.833,42.769 152.032 C 44.684 154.231,48.184 158.248,50.547 160.959 C 56.262 167.516,61.024 172.986,71.419 184.933 C 76.183 190.408,81.459 196.467,83.145 198.397 C 84.830 200.327,86.989 202.819,87.941 203.934 L 89.674 205.961 155.430 205.979 C 191.596 205.988,221.185 205.906,221.183 205.796 C 221.181 205.588,219.521 203.650,207.995 190.404 C 200.925 182.279,186.480 165.645,175.481 152.965 C 172.113 149.081,164.559 140.382,158.695 133.635 C 152.832 126.888,144.437 117.209,140.040 112.126 L 132.045 102.885 66.134 102.875 C 23.628 102.868,0.254 102.957,0.311 103.123 M306.441 313.334 C 302.263 318.182,287.162 335.554,277.667 346.436 C 274.790 349.734,268.684 356.749,264.100 362.025 C 259.516 367.302,252.332 375.566,248.136 380.390 C 243.940 385.214,239.607 390.200,238.508 391.469 C 226.642 405.177,221.072 411.448,220.918 411.271 C 217.832 407.741,216.013 405.650,212.391 401.466 C 209.981 398.681,205.663 393.704,202.797 390.406 C 199.930 387.109,193.641 379.853,188.821 374.284 C 184.001 368.714,179.388 363.388,178.570 362.449 C 172.813 355.838,152.504 332.438,146.070 325.003 C 143.524 322.061,139.729 317.675,137.636 315.256 C 135.544 312.838,133.430 310.406,132.938 309.852 L 132.045 308.845 66.125 308.920 L 0.204 308.994 1.235 310.217 C 1.801 310.890,4.184 313.640,6.529 316.328 C 8.874 319.016,13.671 324.528,17.189 328.577 C 20.706 332.626,26.762 339.586,30.646 344.044 C 34.530 348.502,41.366 356.358,45.836 361.501 C 50.306 366.644,56.720 374.023,60.088 377.898 C 63.456 381.773,69.092 388.247,72.613 392.285 C 76.133 396.323,80.873 401.776,83.145 404.403 C 85.416 407.030,87.801 409.752,88.444 410.452 L 89.613 411.726 244.823 411.726 L 400.033 411.726 397.685 408.970 C 396.393 407.455,392.689 403.168,389.452 399.443 C 375.749 383.672,364.972 371.259,360.457 366.044 C 357.802 362.979,352.750 357.162,349.230 353.120 C 345.710 349.077,339.774 342.239,336.039 337.923 C 332.303 333.607,327.684 328.271,325.773 326.064 C 323.863 323.857,319.861 319.234,316.880 315.789 C 313.899 312.345,311.255 309.311,311.005 309.047 C 310.571 308.589,310.360 308.787,306.441 313.334 " stroke="none" fill="#b30c3b" fill-rule="evenodd"></path><path id="path2" d="M155.081 0.200 C 207.001 0.254,220.532 0.336,220.700 0.600 C 220.850 0.837,220.912 0.799,220.915 0.466 C 220.919 0.023,217.643 0.003,155.296 0.066 L 89.674 0.132 155.081 0.200 M221.452 0.200 C 221.452 0.310,261.566 0.400,310.593 0.400 C 359.620 0.400,399.734 0.310,399.734 0.200 C 399.734 0.090,359.620 0.000,310.593 0.000 C 261.566 0.000,221.452 0.090,221.452 0.200 M219.495 1.820 C 219.252 2.088,219.054 2.406,219.054 2.527 C 219.054 2.648,219.294 2.470,219.587 2.132 C 219.880 1.794,220.120 1.476,220.120 1.425 C 220.120 1.225,219.917 1.354,219.495 1.820 M398.003 2.130 C 397.737 2.424,397.606 2.665,397.713 2.665 C 397.994 2.665,398.753 1.862,398.609 1.718 C 398.542 1.651,398.269 1.836,398.003 2.130 M215.856 5.996 C 215.512 6.362,215.357 6.662,215.513 6.662 C 215.668 6.662,215.991 6.362,216.231 5.996 C 216.471 5.630,216.626 5.330,216.575 5.330 C 216.524 5.330,216.200 5.630,215.856 5.996 M229.506 9.855 C 229.687 10.145,230.015 10.452,230.234 10.536 C 230.454 10.620,230.346 10.383,229.994 10.008 C 229.227 9.192,229.058 9.139,229.506 9.855 M390.919 10.295 C 390.303 10.964,390.301 10.979,390.868 10.634 C 391.195 10.434,391.521 10.119,391.592 9.932 C 391.783 9.435,391.641 9.512,390.919 10.295 M239.848 21.718 C 240.473 22.566,240.906 22.975,240.906 22.717 C 240.906 22.586,240.580 22.187,240.181 21.832 C 239.650 21.358,239.561 21.328,239.848 21.718 M201.907 22.073 C 201.664 22.341,201.466 22.659,201.466 22.780 C 201.466 22.901,201.706 22.723,201.999 22.385 C 202.292 22.047,202.532 21.729,202.532 21.678 C 202.532 21.478,202.329 21.607,201.907 22.073 M68.875 23.811 C 68.269 24.478,68.185 24.881,68.769 24.325 C 69.111 23.999,69.337 23.681,69.272 23.619 C 69.207 23.556,69.029 23.643,68.875 23.811 M198.135 26.382 C 197.869 26.676,197.787 26.915,197.951 26.915 C 198.115 26.915,198.377 26.676,198.534 26.382 C 198.691 26.089,198.774 25.849,198.718 25.849 C 198.663 25.849,198.400 26.089,198.135 26.382 M189.340 36.509 C 189.075 36.802,188.992 37.042,189.157 37.042 C 189.321 37.042,189.583 36.802,189.740 36.509 C 189.897 36.216,189.980 35.976,189.924 35.976 C 189.868 35.976,189.606 36.216,189.340 36.509 M253.165 37.125 C 253.165 37.171,253.554 37.561,254.031 37.991 L 254.897 38.774 254.114 37.908 C 253.384 37.101,253.165 36.919,253.165 37.125 M56.351 38.201 C 55.744 38.869,55.661 39.271,56.244 38.715 C 56.586 38.389,56.812 38.072,56.747 38.009 C 56.682 37.946,56.504 38.033,56.351 38.201 M255.563 39.840 C 256.060 40.353,256.527 40.773,256.600 40.773 C 256.674 40.773,256.327 40.353,255.829 39.840 C 255.332 39.327,254.865 38.907,254.792 38.907 C 254.719 38.907,255.066 39.327,255.563 39.840 M53.581 41.387 L 52.932 42.239 53.781 41.456 C 54.665 40.642,54.765 40.496,54.430 40.521 C 54.320 40.529,53.938 40.919,53.581 41.387 M51.716 43.519 L 51.067 44.370 51.916 43.588 C 52.799 42.773,52.900 42.628,52.565 42.653 C 52.455 42.661,52.073 43.051,51.716 43.519 M50.766 44.710 C 50.620 44.819,50.201 45.267,49.836 45.705 C 49.240 46.420,49.275 46.408,50.169 45.584 C 51.072 44.752,51.293 44.496,51.099 44.508 C 51.063 44.510,50.913 44.601,50.766 44.710 M260.893 45.887 C 260.893 45.961,261.133 46.298,261.426 46.636 C 261.719 46.974,261.959 47.130,261.959 46.984 C 261.959 46.838,261.719 46.501,261.426 46.236 C 261.133 45.971,260.893 45.814,260.893 45.887 M48.351 47.502 L 47.568 48.368 48.434 47.585 C 49.242 46.855,49.423 46.636,49.217 46.636 C 49.171 46.636,48.781 47.025,48.351 47.502 M262.758 48.019 C 262.758 48.093,262.998 48.429,263.291 48.767 C 263.584 49.105,263.824 49.262,263.824 49.116 C 263.824 48.970,263.584 48.633,263.291 48.368 C 262.998 48.102,262.758 47.946,262.758 48.019 M46.486 49.634 L 45.703 50.500 46.569 49.717 C 47.376 48.987,47.558 48.767,47.352 48.767 C 47.306 48.767,46.916 49.157,46.486 49.634 M44.392 51.907 L 43.880 52.632 44.592 51.986 C 45.339 51.307,45.431 51.161,45.103 51.174 C 44.993 51.179,44.673 51.509,44.392 51.907 M267.601 53.813 C 267.942 54.242,268.401 54.669,268.621 54.762 C 268.841 54.854,268.607 54.502,268.102 53.980 C 266.988 52.829,266.760 52.753,267.601 53.813 M41.960 54.724 C 41.353 55.391,41.270 55.794,41.854 55.237 C 42.196 54.912,42.422 54.594,42.357 54.531 C 42.292 54.469,42.113 54.555,41.960 54.724 M268.887 55.247 C 268.887 55.292,269.277 55.682,269.753 56.113 L 270.620 56.895 269.837 56.029 C 269.107 55.222,268.887 55.041,268.887 55.247 M270.753 57.379 C 270.753 57.424,271.143 57.814,271.619 58.245 L 272.485 59.027 271.702 58.161 C 270.973 57.354,270.753 57.173,270.753 57.379 M272.352 59.244 C 272.352 59.290,272.742 59.680,273.218 60.110 L 274.084 60.893 273.301 60.027 C 272.572 59.219,272.352 59.038,272.352 59.244 M274.751 61.959 C 275.117 62.398,275.446 62.808,275.483 62.869 C 275.520 62.930,275.608 62.922,275.680 62.850 C 275.752 62.778,275.423 62.368,274.948 61.939 L 274.086 61.159 274.751 61.959 M33.961 64.024 L 33.178 64.890 34.044 64.107 C 34.851 63.378,35.033 63.158,34.827 63.158 C 34.781 63.158,34.391 63.548,33.961 64.024 M32.645 65.494 C 32.498 65.601,32.140 65.989,31.850 66.356 C 31.408 66.912,31.463 66.893,32.183 66.239 C 32.961 65.533,33.172 65.282,32.978 65.294 C 32.941 65.296,32.791 65.386,32.645 65.494 M30.130 68.303 L 29.481 69.154 30.330 68.371 C 31.213 67.557,31.314 67.412,30.979 67.436 C 30.869 67.445,30.487 67.834,30.130 68.303 M28.265 70.434 L 27.616 71.286 28.465 70.503 C 29.348 69.689,29.449 69.544,29.114 69.568 C 29.004 69.576,28.622 69.966,28.265 70.434 M27.315 71.623 C 27.169 71.731,26.811 72.119,26.520 72.485 C 26.078 73.041,26.133 73.022,26.853 72.369 C 27.631 71.662,27.842 71.411,27.648 71.423 C 27.612 71.425,27.462 71.515,27.315 71.623 M283.011 71.502 C 283.011 71.548,283.401 71.938,283.877 72.369 L 284.744 73.151 283.961 72.285 C 283.231 71.478,283.011 71.297,283.011 71.502 M284.610 73.368 C 284.610 73.414,285.000 73.803,285.476 74.234 L 286.342 75.017 285.560 74.151 C 284.830 73.343,284.610 73.162,284.610 73.368 M24.801 74.432 L 24.151 75.283 25.000 74.500 C 25.884 73.686,25.985 73.541,25.650 73.566 C 25.540 73.574,25.158 73.964,24.801 74.432 M287.010 76.083 C 287.376 76.522,287.705 76.932,287.742 76.993 C 287.778 77.054,287.867 77.045,287.939 76.974 C 288.010 76.902,287.681 76.492,287.207 76.063 L 286.344 75.283 287.010 76.083 M23.035 76.549 L 22.252 77.415 23.118 76.632 C 23.594 76.202,23.984 75.812,23.984 75.766 C 23.984 75.560,23.764 75.742,23.035 76.549 M21.169 78.681 L 20.386 79.547 21.252 78.764 C 21.729 78.334,22.119 77.944,22.119 77.898 C 22.119 77.692,21.899 77.874,21.169 78.681 M290.519 80.195 C 290.860 80.625,291.319 81.052,291.539 81.144 C 291.759 81.236,291.525 80.885,291.020 80.363 C 289.906 79.211,289.678 79.135,290.519 80.195 M19.342 80.688 L 18.830 81.412 19.542 80.766 C 20.289 80.087,20.381 79.941,20.053 79.955 C 19.943 79.960,19.623 80.289,19.342 80.688 M293.404 83.494 C 293.404 83.540,293.794 83.930,294.270 84.361 L 295.137 85.143 294.354 84.277 C 293.624 83.470,293.404 83.289,293.404 83.494 M15.611 84.952 L 15.099 85.676 15.811 85.030 C 16.558 84.351,16.651 84.205,16.322 84.219 C 16.213 84.224,15.892 84.553,15.611 84.952 M296.086 86.496 C 296.590 87.094,297.056 87.539,297.122 87.487 C 297.188 87.434,296.776 86.945,296.206 86.400 L 295.170 85.410 296.086 86.496 M297.727 88.469 C 297.908 88.760,298.236 89.066,298.456 89.150 C 298.675 89.234,298.567 88.997,298.215 88.622 C 297.448 87.806,297.280 87.753,297.727 88.469 M301.054 92.327 C 301.317 92.687,301.712 93.055,301.932 93.144 C 302.151 93.232,301.979 92.938,301.549 92.489 C 300.605 91.504,300.403 91.438,301.054 92.327 M304.518 96.327 C 304.781 96.689,305.108 96.989,305.243 96.994 C 305.378 96.998,305.208 96.702,304.863 96.336 C 304.064 95.485,303.902 95.481,304.518 96.327 M4.951 97.210 L 4.440 97.935 5.151 97.289 C 5.899 96.610,5.991 96.464,5.663 96.477 C 5.553 96.482,5.233 96.812,4.951 97.210 M305.929 97.885 C 305.929 97.931,306.319 98.320,306.795 98.751 L 307.662 99.534 306.879 98.668 C 306.149 97.860,305.929 97.679,305.929 97.885 M307.982 100.325 C 308.246 100.687,308.572 100.986,308.707 100.991 C 308.843 100.996,308.672 100.700,308.328 100.333 C 307.529 99.483,307.366 99.479,307.982 100.325 M309.857 102.331 C 310.355 102.870,310.510 102.917,310.790 102.615 C 311.061 102.323,311.059 102.292,310.776 102.452 C 310.575 102.566,310.178 102.445,309.843 102.168 C 309.273 101.696,309.274 101.700,309.857 102.331 M80.101 216.864 L 79.590 217.588 80.301 216.942 C 81.049 216.263,81.141 216.117,80.813 216.131 C 80.703 216.136,80.383 216.465,80.101 216.864 M207.848 221.067 C 207.496 221.442,207.387 221.680,207.607 221.595 C 207.954 221.462,208.817 220.386,208.576 220.386 C 208.527 220.386,208.199 220.693,207.848 221.067 M69.604 228.924 C 69.283 229.223,69.021 229.544,69.021 229.637 C 69.021 229.730,69.320 229.525,69.687 229.181 C 70.312 228.594,70.467 228.381,70.270 228.381 C 70.224 228.381,69.925 228.626,69.604 228.924 M188.541 243.304 C 188.276 243.598,188.193 243.837,188.357 243.837 C 188.521 243.837,188.784 243.598,188.941 243.304 C 189.098 243.011,189.180 242.771,189.125 242.771 C 189.069 242.771,188.806 243.011,188.541 243.304 M55.563 245.107 C 55.416 245.215,55.120 245.543,54.905 245.836 C 54.616 246.230,54.703 246.200,55.238 245.723 C 55.890 245.142,56.089 244.896,55.896 244.907 C 55.859 244.910,55.710 245.000,55.563 245.107 M47.672 254.031 C 47.359 254.627,47.361 254.628,47.929 254.123 C 48.564 253.559,48.622 253.431,48.244 253.431 C 48.102 253.431,47.845 253.701,47.672 254.031 M167.608 267.437 C 167.256 267.811,167.148 268.049,167.367 267.964 C 167.714 267.831,168.577 266.755,168.337 266.755 C 168.288 266.755,167.960 267.062,167.608 267.437 M35.493 268.098 C 35.173 268.397,34.910 268.718,34.910 268.811 C 34.910 268.904,35.210 268.699,35.576 268.354 C 36.201 267.767,36.356 267.555,36.160 267.555 C 36.114 267.555,35.814 267.799,35.493 268.098 M33.282 270.553 C 32.969 271.149,32.970 271.150,33.539 270.645 C 34.174 270.081,34.232 269.953,33.853 269.953 C 33.712 269.953,33.455 270.223,33.282 270.553 M162.159 273.684 C 161.893 273.977,161.811 274.217,161.975 274.217 C 162.139 274.217,162.401 273.977,162.558 273.684 C 162.715 273.391,162.798 273.151,162.742 273.151 C 162.686 273.151,162.424 273.391,162.159 273.684 M30.247 274.155 C 30.100 274.262,29.804 274.590,29.588 274.883 C 29.299 275.277,29.386 275.247,29.921 274.770 C 30.574 274.189,30.772 273.943,30.580 273.955 C 30.543 273.957,30.393 274.047,30.247 274.155 M13.712 292.965 C 13.105 293.632,13.022 294.035,13.606 293.478 C 13.948 293.153,14.174 292.835,14.109 292.772 C 14.044 292.710,13.865 292.796,13.712 292.965 M140.953 298.103 C 140.336 298.772,140.334 298.787,140.901 298.442 C 141.228 298.243,141.554 297.927,141.625 297.741 C 141.816 297.243,141.674 297.320,140.953 298.103 M5.063 303.077 C 4.843 303.258,4.426 303.704,4.136 304.068 C 3.824 304.461,4.014 304.356,4.603 303.812 C 5.496 302.986,5.731 302.714,5.530 302.740 C 5.493 302.745,5.283 302.897,5.063 303.077 M0.733 307.920 C 0.476 308.273,0.266 308.629,0.266 308.711 C 0.266 308.793,29.866 308.861,66.043 308.861 L 131.819 308.861 132.465 308.128 L 133.111 307.395 132.428 307.995 L 131.744 308.594 66.092 308.594 L 0.440 308.594 1.066 307.928 C 1.410 307.562,1.581 307.266,1.446 307.270 C 1.310 307.275,0.989 307.567,0.733 307.920 " stroke="none" fill="#b8241c" fill-rule="evenodd"></path><path id="path3" d="M363.874 41.639 L 363.091 42.505 363.957 41.722 C 364.765 40.993,364.946 40.773,364.740 40.773 C 364.694 40.773,364.304 41.163,363.874 41.639 M356.679 49.900 L 355.896 50.766 356.762 49.983 C 357.569 49.254,357.751 49.034,357.545 49.034 C 357.499 49.034,357.109 49.424,356.679 49.900 M344.420 64.024 L 343.638 64.890 344.504 64.107 C 345.311 63.378,345.492 63.158,345.286 63.158 C 345.241 63.158,344.851 63.548,344.420 64.024 M342.555 66.156 L 341.772 67.022 342.638 66.239 C 343.446 65.510,343.627 65.290,343.421 65.290 C 343.375 65.290,342.985 65.680,342.555 66.156 M340.956 68.021 L 340.173 68.887 341.039 68.105 C 341.847 67.375,342.028 67.155,341.822 67.155 C 341.776 67.155,341.386 67.545,340.956 68.021 M339.090 70.153 L 338.308 71.019 339.174 70.237 C 339.981 69.507,340.162 69.287,339.957 69.287 C 339.911 69.287,339.521 69.677,339.090 70.153 M335.626 74.151 L 334.843 75.017 335.710 74.234 C 336.517 73.504,336.698 73.284,336.492 73.284 C 336.446 73.284,336.057 73.674,335.626 74.151 M333.761 76.282 L 332.978 77.149 333.844 76.366 C 334.320 75.935,334.710 75.546,334.710 75.500 C 334.710 75.294,334.490 75.475,333.761 76.282 M332.162 78.148 L 331.379 79.014 332.245 78.231 C 333.052 77.502,333.234 77.282,333.028 77.282 C 332.982 77.282,332.592 77.672,332.162 78.148 M330.166 80.413 L 329.247 81.412 330.247 80.494 C 330.796 79.989,331.246 79.539,331.246 79.495 C 331.246 79.291,331.020 79.483,330.166 80.413 M328.431 82.412 L 327.648 83.278 328.514 82.495 C 329.322 81.766,329.503 81.546,329.297 81.546 C 329.251 81.546,328.861 81.935,328.431 82.412 M326.832 84.277 L 326.049 85.143 326.915 84.361 C 327.392 83.930,327.781 83.540,327.781 83.494 C 327.781 83.289,327.562 83.470,326.832 84.277 M146.419 86.143 L 145.636 87.009 146.502 86.226 C 146.979 85.795,147.368 85.406,147.368 85.360 C 147.368 85.154,147.149 85.335,146.419 86.143 M324.952 86.409 C 323.201 88.299,320.470 91.495,320.747 91.331 C 321.076 91.135,326.011 85.543,325.855 85.543 C 325.799 85.543,325.393 85.933,324.952 86.409 M141.089 92.272 L 140.306 93.138 141.173 92.355 C 141.649 91.925,142.039 91.535,142.039 91.489 C 142.039 91.283,141.819 91.465,141.089 92.272 M319.636 92.538 C 317.663 94.705,317.298 95.137,317.439 95.137 C 317.522 95.137,318.274 94.357,319.111 93.404 C 320.660 91.640,321.071 90.962,319.636 92.538 M139.224 94.404 L 138.441 95.270 139.307 94.487 C 139.783 94.057,140.173 93.667,140.173 93.621 C 140.173 93.415,139.953 93.596,139.224 94.404 M316.172 96.536 L 315.390 97.402 316.256 96.619 C 317.063 95.889,317.244 95.670,317.039 95.670 C 316.993 95.670,316.603 96.059,316.172 96.536 M135.759 98.401 L 134.977 99.267 135.843 98.484 C 136.319 98.054,136.709 97.664,136.709 97.618 C 136.709 97.412,136.489 97.594,135.759 98.401 M314.308 98.668 C 312.392 100.717,311.690 101.532,311.843 101.532 C 311.926 101.532,312.798 100.633,313.782 99.534 C 315.697 97.394,316.064 96.790,314.308 98.668 M134.160 100.266 L 133.378 101.133 134.244 100.350 C 134.720 99.919,135.110 99.530,135.110 99.484 C 135.110 99.278,134.890 99.459,134.160 100.266 " stroke="none" fill="#4c0f0a" fill-rule="evenodd"></path><path id="path4" d="" stroke="none" fill="#751913" fill-rule="evenodd"></path></g></svg>