<svg id="svg" version="1.1" xmlns="http://www.w3.org/2000/svg" xmlns:xlink="http://www.w3.org/1999/xlink" width="400" height="420" viewBox="0, 0, 400,420"><g id="svgg"><path id="path0" d="M277.833 65.400 C 269.996 69.455,262.401 70.518,248.833 69.460 C 239.017 68.694,224.398 68.606,220.690 69.290 C 208.205 71.594,202.727 79.097,202.165 94.667 C 202.056 97.692,201.822 102.267,201.645 104.833 C 200.806 117.013,200.905 161.214,201.870 205.243 L 202.076 214.653 203.322 212.743 C 209.434 203.372,215.988 201.456,243.500 200.996 C 263.908 200.654,269.997 199.764,277.410 196.038 C 281.867 193.798,281.522 199.883,281.395 125.917 L 281.289 64.333 280.561 64.349 C 280.161 64.358,278.933 64.831,277.833 65.400 M119.162 122.083 C 119.046 153.296,118.929 181.833,118.902 185.500 C 118.838 194.356,119.295 195.465,123.876 197.562 C 130.272 200.491,136.801 201.165,158.833 201.174 C 178.756 201.181,178.977 201.198,184.863 203.160 C 189.829 204.815,194.046 207.935,196.739 211.946 L 197.934 213.726 198.177 162.613 C 198.526 89.527,198.539 93.025,197.896 89.283 C 194.866 71.663,185.087 67.048,155.833 69.431 C 137.349 70.937,131.720 70.467,123.003 66.686 C 121.288 65.942,119.770 65.333,119.629 65.333 C 119.488 65.333,119.278 90.871,119.162 122.083 M319.307 87.757 C 319.292 93.849,319.176 100.083,319.050 101.611 C 318.780 104.861,318.670 104.738,322.028 104.933 C 324.322 105.066,324.615 105.015,324.779 104.457 C 325.569 101.770,326.165 94.501,326.489 83.575 L 326.675 77.317 324.967 78.492 C 322.769 80.003,322.368 79.973,320.709 78.174 L 319.333 76.682 319.307 87.757 M79.167 80.000 C 77.560 81.645,77.031 81.658,74.908 80.099 L 73.227 78.865 73.440 80.202 C 73.558 80.937,73.807 84.155,73.993 87.353 C 75.251 108.901,74.703 106.428,78.183 106.282 C 81.631 106.138,81.432 106.447,80.972 101.959 C 80.711 99.414,80.653 94.961,80.797 88.417 C 80.915 83.054,80.890 78.667,80.740 78.667 C 80.591 78.667,79.883 79.267,79.167 80.000 M141.363 95.617 C 141.883 98.146,143.358 99.641,147.368 101.701 C 154.709 105.472,154.990 108.495,149.373 123.278 C 147.177 129.056,146.629 129.367,138.740 129.311 C 135.675 129.289,132.942 129.323,132.667 129.386 C 132.031 129.531,132.041 129.469,133.319 125.583 C 134.087 123.250,134.545 122.324,134.944 122.301 C 135.250 122.283,137.525 122.231,140.000 122.184 C 147.008 122.053,148.455 120.823,148.487 114.973 C 148.509 110.790,146.481 108.737,139.368 105.740 L 135.851 104.258 134.908 105.379 C 131.098 109.911,130.568 111.543,130.855 117.857 C 131.119 123.653,130.935 124.345,128.109 128.194 C 125.851 131.270,125.294 131.020,126.189 127.335 C 126.674 125.342,126.701 124.585,126.377 122.065 C 125.515 115.339,125.899 113.517,129.082 109.223 C 130.330 107.539,130.685 106.840,130.349 106.728 C 126.910 105.581,124.669 99.729,126.297 96.145 C 127.653 93.158,129.883 91.398,129.510 93.608 C 128.483 99.685,133.881 102.082,137.253 97.047 C 137.945 96.013,139.034 94.417,139.673 93.500 L 140.833 91.833 140.915 92.833 C 140.960 93.383,141.162 94.636,141.363 95.617 M270.431 94.763 C 270.287 96.103,270.365 96.248,272.138 97.958 C 275.744 101.434,275.379 105.038,271.006 109.129 C 270.062 110.012,269.337 110.762,269.395 110.795 C 276.095 114.695,277.278 120.696,272.625 127.175 C 271.500 128.741,269.285 129.477,269.809 128.110 C 271.963 122.498,269.647 118.776,261.512 114.776 L 257.858 112.979 257.111 114.406 C 255.877 116.762,256.048 118.830,257.652 120.981 C 261.497 126.134,258.718 129.574,251.167 129.008 C 247.994 128.770,247.511 126.705,250.497 126.145 L 251.594 125.940 251.417 121.839 C 251.198 116.778,251.691 115.425,254.539 113.275 C 256.696 111.646,256.691 111.802,254.624 110.227 C 249.302 106.171,247.970 98.435,251.929 94.569 L 253.211 93.317 253.602 95.832 C 254.448 101.270,257.367 104.563,264.053 107.619 C 268.256 109.540,267.947 109.521,268.677 107.913 C 269.646 105.779,269.518 105.157,267.713 103.230 C 264.409 99.704,264.446 98.029,267.912 94.178 C 269.826 92.050,270.701 92.253,270.431 94.763 M158.909 96.951 C 160.091 98.542,160.821 98.733,164.667 98.450 C 176.054 97.615,176.552 98.107,177.168 110.833 C 177.447 116.587,178.063 120.320,178.994 121.898 L 179.704 123.101 178.557 124.967 C 177.510 126.670,175.056 129.000,174.309 129.000 C 174.126 129.000,174.088 126.014,174.213 121.583 C 174.589 108.276,173.770 106.355,167.667 106.230 C 162.049 106.116,161.234 108.736,163.871 118.436 C 166.372 127.638,165.748 128.656,157.148 129.400 C 152.159 129.831,152.418 130.021,153.384 126.637 C 154.310 123.395,154.840 122.888,158.193 122.036 L 160.500 121.450 160.453 120.308 C 160.427 119.680,160.303 117.292,160.177 115.000 C 159.998 111.728,160.058 110.440,160.459 109.000 C 160.922 107.340,160.921 107.135,160.445 106.833 C 158.266 105.451,157.757 104.993,157.102 103.825 C 156.110 102.057,155.857 99.666,156.322 96.473 C 156.908 92.457,156.988 92.329,157.663 94.323 C 157.988 95.283,158.549 96.465,158.909 96.951 M184.042 97.748 C 184.506 98.094,186.175 98.594,187.816 98.877 C 193.516 99.860,194.915 102.145,191.791 105.368 C 189.353 107.883,189.626 120.426,192.146 121.734 C 192.524 121.930,192.875 122.124,192.925 122.165 C 193.071 122.283,190.673 126.433,190.057 127.129 C 189.133 128.174,185.927 129.261,186.498 128.336 C 186.611 128.154,186.841 123.991,187.010 119.086 C 187.179 114.180,187.407 109.474,187.517 108.627 L 187.717 107.087 185.912 106.937 C 180.201 106.463,178.392 101.270,181.348 93.833 L 181.746 92.833 182.478 94.980 C 182.925 96.290,183.535 97.369,184.042 97.748 M235.521 96.485 C 236.379 97.794,237.657 98.308,240.865 98.633 C 246.451 99.199,248.374 103.719,244.096 106.226 L 242.667 107.063 242.667 112.462 C 242.667 117.622,242.805 118.710,243.947 122.526 C 244.478 124.302,241.819 128.872,240.411 128.603 C 238.761 128.286,238.466 117.732,239.850 108.502 L 240.076 107.000 238.121 106.999 C 232.799 106.995,230.862 101.293,233.723 94.053 L 234.074 93.167 234.508 94.385 C 234.748 95.055,235.203 96.000,235.521 96.485 M210.586 96.305 C 212.446 99.298,214.230 99.896,219.000 99.126 C 227.298 97.787,228.477 99.318,229.170 112.333 C 229.439 117.391,229.891 120.229,230.663 121.725 L 231.296 122.950 230.333 124.728 C 229.278 126.676,227.894 128.140,226.792 128.472 L 226.085 128.685 226.126 120.092 C 226.187 107.261,226.120 107.152,218.167 107.274 C 212.525 107.360,211.447 107.065,210.115 105.071 C 208.727 102.993,207.974 97.838,208.778 95.914 C 209.429 94.356,209.366 94.343,210.586 96.305 M308.667 110.256 L 308.667 113.589 309.583 113.794 C 317.055 115.464,323.438 113.872,323.995 110.200 L 324.219 108.720 321.026 108.527 C 317.702 108.325,310.718 107.483,309.417 107.127 C 308.675 106.925,308.667 106.960,308.667 110.256 M88.333 108.518 C 87.142 108.760,84.067 109.134,81.500 109.349 C 75.670 109.839,76.027 109.722,76.299 111.051 C 76.955 114.260,81.835 115.666,89.472 114.849 L 91.667 114.614 91.667 111.307 C 91.667 107.545,91.954 107.785,88.333 108.518 M260.833 144.709 C 260.833 147.629,261.226 148.400,263.655 150.252 C 266.672 152.553,266.976 154.701,264.968 159.525 C 263.181 163.819,262.798 163.952,262.304 160.452 C 261.988 158.220,261.927 158.113,259.675 155.833 C 255.779 151.892,255.618 149.907,258.747 144.410 C 260.445 141.428,260.833 141.483,260.833 144.709 M175.698 146.411 C 175.877 147.096,176.897 148.821,177.966 150.245 C 181.956 155.561,182.009 159.413,178.134 162.607 C 176.481 163.969,176.465 163.964,176.436 162.040 C 176.400 159.672,175.868 158.382,173.672 155.341 C 170.596 151.081,170.706 149.200,174.314 144.354 L 175.167 143.209 175.270 144.188 C 175.327 144.726,175.520 145.727,175.698 146.411 M229.795 145.583 C 229.895 146.087,230.072 147.053,230.188 147.728 C 230.645 150.385,232.795 151.043,241.448 151.178 C 247.272 151.268,247.838 151.332,249.241 152.054 C 253.339 154.164,254.530 161.178,252.843 173.265 C 252.390 176.511,251.977 179.692,251.926 180.333 C 251.859 181.179,251.696 181.465,251.333 181.371 C 251.058 181.301,245.546 181.168,239.083 181.077 L 227.333 180.912 227.333 180.176 C 227.333 178.781,228.343 168.829,228.687 166.833 C 229.089 164.497,230.174 161.001,231.018 159.318 L 231.611 158.136 230.222 157.397 C 226.748 155.549,226.101 151.596,228.399 146.254 C 229.178 144.444,229.535 144.272,229.795 145.583 M147.341 149.755 C 148.954 150.562,149.782 150.717,154.008 151.004 C 167.817 151.939,170.157 155.892,167.424 173.667 C 167.015 176.325,166.593 179.213,166.486 180.085 C 166.312 181.506,166.217 181.651,165.563 181.497 C 164.575 181.264,150.753 181.132,146.026 181.311 L 142.218 181.454 142.288 179.144 C 142.571 169.887,143.437 164.434,145.190 160.856 C 145.813 159.585,146.288 158.529,146.245 158.509 C 141.961 156.508,140.947 152.401,143.351 146.792 L 144.046 145.171 144.773 147.002 C 145.424 148.642,145.692 148.929,147.341 149.755 M148.122 159.890 C 146.900 162.813,146.295 166.174,146.231 170.387 C 146.157 175.226,146.097 175.067,147.843 174.638 C 150.276 174.042,157.936 173.925,161.167 174.436 C 164.836 175.016,164.454 175.713,164.088 169.106 C 163.624 160.715,163.430 160.513,154.697 159.348 C 148.263 158.490,148.722 158.452,148.122 159.890 M233.163 159.083 C 232.407 161.184,231.931 164.645,231.767 169.216 L 231.575 174.599 233.704 174.075 C 236.556 173.374,244.700 173.372,247.583 174.072 L 249.667 174.577 249.664 171.039 C 249.658 162.393,248.269 159.834,243.126 158.991 C 240.168 158.507,233.347 158.570,233.163 159.083 M79.667 165.834 C 77.754 168.395,77.124 168.424,74.587 166.064 C 74.085 165.597,73.602 165.287,73.514 165.375 C 73.356 165.533,74.696 180.321,75.337 185.491 C 75.518 186.953,75.667 188.266,75.667 188.408 C 75.667 188.550,77.026 188.667,78.688 188.667 L 81.709 188.667 81.486 182.750 C 81.362 179.496,81.165 174.007,81.047 170.553 L 80.833 164.272 79.667 165.834 M318.548 170.720 C 318.436 172.249,318.260 177.325,318.155 182.000 C 318.051 186.675,317.896 190.838,317.810 191.250 C 317.657 191.984,317.719 192.000,320.654 192.000 C 324.187 192.000,323.770 192.689,324.486 185.667 C 326.352 167.364,326.370 168.257,324.167 170.004 C 322.058 171.676,322.015 171.672,320.234 169.637 L 318.750 167.941 318.548 170.720 M90.000 191.693 C 89.358 191.853,87.258 192.077,85.333 192.192 C 83.408 192.306,81.383 192.443,80.833 192.496 C 80.283 192.549,79.046 192.609,78.083 192.629 C 76.048 192.673,75.803 193.321,76.965 195.597 C 78.443 198.493,79.924 199.030,86.129 198.919 L 90.935 198.833 91.125 197.333 C 91.613 193.494,91.735 191.336,91.463 191.367 C 91.300 191.386,90.642 191.533,90.000 191.693 M307.667 195.589 C 307.667 196.125,307.763 197.925,307.881 199.589 L 308.096 202.614 308.965 202.274 C 309.498 202.066,311.269 202.021,313.549 202.156 C 319.111 202.487,321.137 201.680,322.610 198.547 C 323.865 195.876,323.584 195.668,318.711 195.656 C 314.875 195.647,310.962 195.320,308.583 194.810 C 307.747 194.631,307.667 194.700,307.667 195.589 M213.464 229.422 C 205.388 234.152,196.942 234.511,188.386 230.488 L 185.938 229.337 186.177 231.085 C 187.237 238.835,189.678 240.450,200.333 240.449 C 209.761 240.448,212.006 239.168,213.673 232.838 C 214.060 231.369,214.452 229.904,214.544 229.583 C 214.741 228.899,214.435 228.853,213.464 229.422 M348.833 333.034 C 277.286 377.105,124.478 377.469,50.667 333.745 L 47.833 332.067 47.628 338.783 C 47.430 345.256,47.261 347.046,46.125 354.667 C 44.954 362.522,41.838 375.812,40.643 378.045 C 40.199 378.875,39.910 378.686,43.537 379.934 C 45.208 380.509,49.108 382.171,52.204 383.627 C 66.849 390.515,94.462 399.277,114.167 403.289 C 179.621 416.616,250.276 413.923,310.167 395.818 C 321.241 392.470,343.367 384.260,351.016 380.659 C 353.316 379.576,356.144 378.470,357.300 378.200 C 359.904 377.593,359.773 377.781,359.007 375.765 C 356.454 369.048,352.884 346.633,352.253 333.360 C 352.144 331.068,352.041 331.058,348.833 333.034 M62.495 350.360 C 62.372 351.089,61.191 356.033,59.869 361.348 C 58.548 366.662,57.560 371.160,57.673 371.344 C 58.057 371.965,60.103 372.322,64.563 372.545 C 69.687 372.803,69.550 372.626,67.151 375.869 C 65.034 378.732,65.502 378.678,60.833 376.599 C 56.206 374.538,54.963 374.085,53.219 373.824 C 51.799 373.611,51.624 373.497,51.761 372.874 C 51.846 372.485,52.901 368.342,54.105 363.667 C 55.309 358.992,56.617 353.442,57.012 351.333 C 57.407 349.225,57.787 347.309,57.857 347.075 C 57.948 346.775,58.679 347.000,60.352 347.843 L 62.719 349.035 62.495 350.360 M343.448 351.000 C 345.276 355.219,345.118 355.542,342.101 353.752 C 337.450 350.994,335.318 350.630,333.641 352.308 C 330.905 355.044,333.120 357.443,340.000 359.196 C 353.342 362.594,352.604 373.811,338.806 377.340 C 333.981 378.574,332.336 377.401,330.732 371.583 C 330.317 370.078,330.366 370.073,333.046 371.320 C 339.502 374.326,344.424 373.951,344.424 370.454 C 344.424 366.705,343.157 365.653,336.495 363.871 C 328.074 361.619,326.383 360.078,327.329 355.519 C 328.228 351.192,330.775 349.314,337.667 347.900 C 342.169 346.977,341.563 346.651,343.448 351.000 M80.032 356.032 C 82.694 356.841,82.639 356.649,81.314 360.521 C 77.140 372.720,76.715 379.266,79.987 380.917 C 85.938 383.917,90.019 378.666,91.841 365.667 C 92.675 359.719,92.343 360.294,94.583 360.910 C 95.638 361.199,96.620 361.540,96.766 361.668 C 98.107 362.834,91.972 379.715,89.120 382.710 C 83.429 388.686,72.192 384.573,72.275 376.544 C 72.314 372.703,76.547 355.352,77.448 355.338 C 77.603 355.335,78.766 355.648,80.032 356.032 M315.035 361.064 C 316.523 362.933,318.585 365.665,319.615 367.136 C 320.646 368.607,323.407 372.133,325.750 374.973 L 330.011 380.135 327.755 380.943 C 324.055 382.268,323.739 382.195,322.273 379.685 C 318.948 373.988,319.268 374.119,313.287 375.993 C 310.202 376.960,310.066 377.043,309.874 378.083 C 309.657 379.254,309.015 385.148,309.006 386.053 C 309.002 386.443,308.261 386.855,306.500 387.447 C 303.482 388.462,303.608 389.197,305.313 380.500 C 306.796 372.938,307.666 366.125,307.666 362.068 L 307.667 359.303 309.417 358.488 C 311.986 357.292,312.055 357.324,315.035 361.064 M105.402 363.879 C 107.106 364.362,108.551 364.801,108.614 364.854 C 108.676 364.906,109.076 366.598,109.503 368.612 C 110.804 374.754,110.789 374.748,114.875 370.500 C 118.247 366.994,118.381 366.941,121.532 367.857 C 123.776 368.509,123.933 368.213,119.917 370.914 C 112.722 375.754,112.369 376.054,112.560 377.167 C 113.022 379.858,114.291 383.956,116.018 388.333 C 117.067 390.992,117.789 393.218,117.623 393.280 C 117.261 393.416,111.000 392.315,111.000 392.115 C 111.000 391.249,109.095 383.828,108.602 382.776 C 107.373 380.152,105.945 380.695,102.813 384.978 C 100.052 388.755,99.484 389.016,96.627 387.825 C 95.457 387.337,94.391 386.836,94.258 386.710 C 94.125 386.585,95.325 385.619,96.924 384.563 C 102.476 380.901,106.510 377.532,106.415 376.636 C 106.288 375.434,104.730 370.843,103.486 368.006 C 102.432 365.599,101.720 363.000,102.115 363.000 C 102.219 363.000,103.698 363.396,105.402 363.879 M300.008 366.382 C 302.018 370.447,302.197 370.211,298.157 368.818 C 294.073 367.411,291.562 367.251,291.820 368.417 C 293.618 376.524,296.649 387.687,297.497 389.328 C 297.911 390.128,297.932 390.376,297.595 390.487 C 292.633 392.125,291.352 392.139,291.338 390.552 C 291.306 386.624,286.506 369.237,285.536 369.532 C 283.423 370.176,281.210 371.540,279.882 373.017 C 278.122 374.974,278.151 374.967,277.688 373.564 C 277.248 372.231,277.973 367.766,278.705 367.302 C 278.959 367.142,279.853 367.008,280.692 367.005 C 283.287 366.996,289.420 365.732,293.383 364.388 C 298.589 362.622,298.072 362.466,300.008 366.382 M311.224 366.917 C 311.109 368.521,310.917 370.537,310.798 371.397 L 310.581 372.960 313.503 372.157 C 315.110 371.714,316.486 371.292,316.561 371.217 C 316.679 371.098,311.711 364.000,311.510 364.000 C 311.468 364.000,311.339 365.313,311.224 366.917 M274.375 374.933 C 274.871 378.446,275.835 383.986,276.517 387.243 C 277.200 390.501,277.826 393.553,277.908 394.026 C 278.050 394.838,277.923 394.925,275.613 395.597 C 272.048 396.633,271.333 396.774,271.333 396.438 C 271.333 395.483,268.921 377.033,268.486 374.667 C 268.200 373.108,267.880 371.349,267.774 370.758 C 267.604 369.807,267.693 369.637,268.541 369.287 C 269.477 368.901,272.515 368.375,273.153 368.489 C 273.329 368.521,273.879 371.421,274.375 374.933 M145.981 371.773 L 151.129 372.526 151.709 375.174 C 152.028 376.631,152.385 378.339,152.503 378.969 L 152.718 380.114 150.887 378.440 C 148.939 376.660,147.500 375.871,143.919 374.622 C 142.364 374.079,141.584 373.949,141.340 374.193 C 140.949 374.585,140.001 379.576,140.000 381.250 L 140.000 382.333 143.167 382.333 L 146.333 382.333 146.335 383.417 C 146.336 384.012,146.497 385.077,146.693 385.781 C 147.170 387.500,147.128 387.510,144.200 386.347 C 141.346 385.213,140.595 385.117,140.019 385.811 C 139.719 386.172,138.376 393.030,138.339 394.390 C 138.313 395.368,147.175 394.883,150.981 393.698 C 153.335 392.966,153.290 392.840,151.836 396.130 C 150.556 399.022,150.370 399.063,143.825 397.864 C 142.354 397.595,139.069 397.218,136.525 397.026 C 133.981 396.834,131.828 396.606,131.741 396.518 C 131.653 396.431,132.423 392.041,133.451 386.763 C 134.479 381.485,135.553 375.742,135.838 374.000 C 136.123 372.258,136.414 370.665,136.484 370.460 C 136.577 370.190,137.198 370.215,138.723 370.553 C 139.884 370.810,143.150 371.359,145.981 371.773 M256.667 371.917 C 259.706 373.436,259.575 377.296,256.298 382.734 L 255.554 383.968 256.511 385.401 C 258.071 387.735,263.621 393.020,266.712 395.116 C 270.555 397.722,270.543 398.489,266.661 398.264 C 261.851 397.986,256.685 394.582,252.790 389.124 L 251.321 387.064 249.244 387.244 C 248.101 387.343,247.109 387.473,247.039 387.534 C 246.940 387.619,247.870 397.387,248.113 398.815 C 248.168 399.141,244.541 399.957,242.917 399.984 L 242.000 400.000 241.995 396.083 C 241.985 387.918,241.260 379.375,240.154 374.417 C 240.020 373.813,240.135 373.663,240.744 373.648 C 241.160 373.638,243.450 373.123,245.833 372.503 C 250.956 371.171,254.760 370.965,256.667 371.917 M162.167 373.804 C 165.992 374.616,169.897 375.000,174.333 375.000 L 178.518 375.000 179.084 378.897 C 179.762 383.565,179.894 383.357,177.524 381.353 C 175.538 379.675,172.121 377.667,171.249 377.667 C 170.683 377.667,170.608 378.261,169.807 389.167 C 169.511 393.200,169.327 397.532,169.398 398.794 L 169.527 401.089 166.363 400.866 C 162.571 400.600,162.965 401.609,163.878 394.500 C 164.302 391.200,164.753 385.964,164.879 382.863 L 165.109 377.227 162.805 377.442 C 161.181 377.594,159.860 377.978,158.333 378.745 C 157.142 379.344,156.054 379.883,155.917 379.944 C 155.164 380.279,155.787 377.372,156.917 375.280 C 158.036 373.206,158.254 372.982,159.000 373.137 C 159.458 373.231,160.883 373.532,162.167 373.804 M232.787 374.459 C 233.448 374.735,234.035 375.299,234.263 375.876 C 234.617 376.775,235.667 380.698,235.667 381.124 C 235.667 381.231,234.954 380.866,234.083 380.312 C 232.108 379.057,228.856 378.094,225.917 377.896 L 223.667 377.743 223.667 378.654 C 223.667 379.155,223.765 380.952,223.886 382.647 L 224.104 385.730 225.969 385.502 C 226.994 385.377,228.657 384.999,229.664 384.662 C 230.670 384.325,231.513 384.076,231.535 384.108 C 231.558 384.140,231.811 385.217,232.098 386.500 C 232.822 389.746,232.682 389.860,228.557 389.374 C 223.401 388.766,223.888 388.417,224.076 392.583 C 224.377 399.262,225.152 399.587,234.205 396.843 C 239.493 395.240,239.418 395.191,237.496 399.008 L 236.325 401.333 232.412 401.337 C 230.261 401.339,226.400 401.564,223.833 401.836 C 221.267 402.109,219.075 402.332,218.963 402.333 C 218.851 402.333,218.664 397.121,218.549 390.750 C 218.433 384.379,218.246 378.334,218.133 377.316 L 217.928 375.466 223.548 374.780 C 230.580 373.921,231.429 373.892,232.787 374.459 M246.382 375.296 C 245.887 375.610,246.445 383.868,247.000 384.453 C 248.436 385.965,253.667 380.712,253.667 377.758 C 253.667 375.584,248.620 373.878,246.382 375.296 M196.000 375.739 C 196.000 377.201,202.809 392.970,203.670 393.502 C 204.084 393.758,206.540 386.462,207.870 381.028 L 209.083 376.072 211.899 375.837 C 215.441 375.542,215.370 375.412,213.671 379.068 C 211.520 383.698,208.806 390.606,207.637 394.429 C 205.780 400.500,203.522 404.399,202.163 403.878 C 201.489 403.619,199.050 398.435,196.338 391.497 C 194.583 387.008,193.113 383.443,190.144 376.477 L 189.708 375.454 192.854 375.439 C 194.611 375.431,196.000 375.563,196.000 375.739 " stroke="none" fill="#fafafa" fill-rule="evenodd"></path><path id="path1" d="M47.456 6.917 C 47.301 9.988,47.184 46.625,47.196 88.333 L 47.218 164.167 48.281 178.333 C 51.572 222.171,54.600 234.989,65.935 253.068 C 86.927 286.547,133.099 315.605,189.833 331.043 C 191.850 331.591,194.687 332.576,196.139 333.230 C 200.579 335.233,201.647 334.989,224.185 326.819 C 267.665 311.058,294.402 295.897,316.131 274.681 C 338.830 252.518,347.473 233.046,350.982 196.167 C 353.426 170.473,353.251 181.732,353.083 61.250 L 353.000 1.333 200.369 1.333 L 47.738 1.333 47.456 6.917 M344.975 8.849 C 345.162 9.040,345.170 9.778,344.996 10.699 C 344.025 15.830,343.909 27.411,344.081 102.000 C 344.177 143.804,344.124 180.029,343.961 183.167 C 343.313 195.675,341.364 209.921,339.105 218.667 C 338.465 221.142,337.680 224.231,337.359 225.531 C 335.219 234.214,325.993 250.770,317.966 260.333 C 297.900 284.238,256.251 308.275,211.968 321.509 C 209.694 322.189,206.333 323.419,204.500 324.244 C 200.019 326.258,199.077 326.184,191.667 323.225 C 188.642 322.017,182.642 319.804,178.333 318.308 C 113.574 295.823,75.444 265.509,63.903 227.333 C 56.919 204.229,56.250 191.968,56.373 89.333 C 56.443 31.631,56.373 16.378,56.024 13.234 C 55.504 8.554,55.180 9.010,58.828 9.296 C 62.330 9.570,207.348 9.098,244.667 8.691 C 278.142 8.326,344.567 8.431,344.975 8.849 M279.987 59.984 C 268.379 65.224,261.281 66.039,237.742 64.833 C 224.938 64.177,220.090 64.362,215.336 65.685 C 207.647 67.826,202.909 73.102,200.715 81.968 L 199.849 85.470 199.434 82.993 C 197.154 69.376,187.739 63.468,170.000 64.522 C 136.875 66.492,130.954 65.997,119.622 60.311 L 116.410 58.699 114.815 61.099 C 113.938 62.420,111.649 65.572,109.729 68.105 L 106.238 72.709 103.202 72.513 C 101.533 72.405,98.907 72.230,97.368 72.124 L 94.570 71.932 94.768 72.923 C 95.361 75.886,95.699 84.677,95.527 92.667 C 95.423 97.525,95.252 130.563,95.146 166.083 L 94.954 230.667 128.060 230.750 C 177.956 230.876,177.040 230.897,181.017 229.494 C 181.741 229.239,182.333 229.096,182.333 229.178 C 182.333 229.259,182.042 230.415,181.685 231.746 C 178.600 243.260,183.408 247.011,200.667 246.553 C 217.903 246.097,221.892 242.205,217.843 229.796 C 217.615 229.098,217.631 229.096,219.959 229.536 C 225.168 230.521,231.353 230.667,268.048 230.667 L 305.333 230.667 305.333 151.187 L 305.333 71.708 303.857 71.486 C 303.045 71.364,302.254 71.343,302.098 71.439 C 301.943 71.535,300.071 71.651,297.939 71.697 L 294.062 71.780 290.061 66.429 C 287.861 63.486,285.652 60.460,285.153 59.705 C 284.055 58.047,284.308 58.033,279.987 59.984 M281.417 118.750 C 281.529 192.739,281.534 190.671,281.237 192.074 C 280.680 194.698,278.651 196.127,272.848 197.981 C 264.365 200.692,261.481 200.999,241.500 201.320 C 214.912 201.747,208.734 203.763,202.737 213.964 L 201.833 215.500 201.635 202.333 C 201.526 195.092,201.236 177.017,200.990 162.167 C 200.452 129.666,200.730 115.651,202.454 88.333 C 202.779 83.182,206.363 76.490,210.573 73.175 C 216.143 68.789,226.743 67.577,246.074 69.117 C 261.762 70.366,269.738 69.385,277.889 65.202 C 279.142 64.559,280.429 64.025,280.750 64.016 C 281.303 64.001,281.338 66.854,281.417 118.750 M123.870 66.856 C 132.239 70.202,137.823 70.637,155.667 69.331 C 183.058 67.326,191.269 70.083,196.425 83.017 C 198.050 87.094,199.464 99.875,198.820 104.667 C 198.685 105.675,198.482 130.793,198.370 160.485 L 198.167 214.470 196.726 212.258 C 193.595 207.452,188.650 204.127,182.279 202.546 C 176.653 201.149,174.917 201.079,152.833 201.360 C 132.280 201.621,120.241 198.632,119.049 192.974 C 118.476 190.257,119.035 64.942,119.619 65.165 C 119.920 65.281,121.833 66.041,123.870 66.856 M115.872 68.583 C 115.163 71.749,115.103 79.364,115.392 129.000 C 115.566 158.792,115.784 185.417,115.876 188.167 C 116.229 198.622,115.264 201.386,106.963 213.684 C 102.534 220.247,101.947 220.279,102.679 213.921 C 103.073 210.504,103.133 199.280,103.045 145.500 L 102.940 81.167 105.049 80.000 C 106.209 79.358,108.286 77.708,109.666 76.333 C 112.072 73.935,112.867 72.722,114.306 69.250 C 115.053 67.450,116.239 66.944,115.872 68.583 M287.068 70.598 C 289.619 74.491,292.573 77.681,295.202 79.381 L 297.370 80.783 297.323 144.475 C 297.279 204.872,297.382 213.365,298.198 216.991 C 298.556 218.581,296.596 216.267,290.364 207.741 C 284.985 200.381,284.756 199.380,285.197 185.207 C 285.636 171.131,285.580 72.376,285.132 69.750 C 284.676 67.072,284.791 67.123,287.068 70.598 M315.560 69.250 C 315.479 69.387,315.614 71.131,315.860 73.125 C 317.035 82.670,317.224 93.358,316.318 98.929 C 315.683 102.826,314.086 104.332,310.583 104.333 L 308.667 104.333 308.667 105.613 L 308.667 106.893 310.917 107.294 C 314.231 107.883,318.814 108.321,321.750 108.327 L 324.333 108.333 324.333 109.422 C 324.333 113.616,320.461 115.072,311.574 114.219 L 308.649 113.939 308.871 115.386 C 308.993 116.182,309.126 116.875,309.166 116.925 C 309.206 116.976,310.573 117.235,312.203 117.503 C 326.150 119.789,328.162 116.151,329.825 85.630 C 330.101 80.569,330.488 75.266,330.686 73.847 C 331.120 70.727,331.086 70.681,329.273 71.922 C 324.333 75.306,322.065 75.116,317.974 70.974 C 315.964 68.939,315.807 68.827,315.560 69.250 M82.500 73.716 C 78.032 77.171,77.025 77.335,72.548 75.342 L 69.595 74.028 69.796 75.431 C 69.907 76.202,70.226 81.183,70.506 86.500 C 72.074 116.336,74.645 121.065,87.907 118.510 L 91.314 117.854 91.531 116.411 C 91.797 114.632,91.908 114.708,89.500 115.019 C 82.064 115.979,76.341 114.226,76.063 110.903 C 75.974 109.838,76.056 109.667,76.656 109.667 C 78.018 109.667,86.872 108.664,89.167 108.250 L 91.500 107.828 91.603 106.581 L 91.707 105.333 89.603 105.328 C 84.176 105.316,83.445 102.650,83.775 84.083 C 83.887 77.804,83.946 72.671,83.906 72.676 C 83.866 72.681,83.233 73.149,82.500 73.716 M322.766 79.333 C 323.197 79.333,324.281 78.813,325.175 78.178 C 326.069 77.542,326.822 77.055,326.850 77.094 C 326.976 77.278,326.034 98.338,325.847 99.508 C 324.936 105.223,325.045 104.934,323.717 105.154 C 322.670 105.328,319.112 104.889,318.767 104.545 C 318.703 104.481,318.824 101.894,319.037 98.797 C 319.271 95.393,319.348 89.808,319.232 84.671 L 319.040 76.175 320.511 77.754 C 321.460 78.773,322.260 79.333,322.766 79.333 M80.974 88.750 C 80.949 94.479,81.038 100.764,81.174 102.716 L 81.420 106.266 78.571 106.504 C 74.562 106.838,74.963 108.065,74.167 93.022 C 73.909 88.152,73.593 82.907,73.464 81.368 L 73.229 78.569 74.978 79.951 C 77.159 81.675,77.352 81.671,79.269 79.841 C 80.130 79.020,80.876 78.345,80.927 78.341 C 80.979 78.337,81.000 83.021,80.974 88.750 M140.267 92.917 C 139.991 93.237,139.122 94.475,138.336 95.667 C 135.368 100.169,133.911 101.025,131.699 99.561 C 130.075 98.486,129.337 96.900,129.320 94.450 L 129.306 92.500 127.982 93.965 C 124.589 97.718,125.339 103.476,129.551 106.011 C 130.256 106.435,130.878 106.814,130.933 106.852 C 130.988 106.890,130.251 107.952,129.297 109.211 C 126.088 113.441,125.877 114.441,126.458 122.667 C 126.683 125.847,126.638 126.751,126.191 127.977 C 125.070 131.058,126.302 130.638,128.639 127.144 C 130.979 123.646,131.177 122.736,130.700 117.667 C 130.183 112.168,131.486 108.535,135.448 104.434 C 135.746 104.125,136.676 104.399,139.539 105.637 C 147.442 109.055,149.795 112.046,148.515 117.044 C 147.321 121.706,146.672 122.094,139.696 122.328 L 134.559 122.500 133.627 125.275 C 133.115 126.802,132.616 128.302,132.518 128.609 C 132.356 129.121,132.876 129.157,138.754 129.047 C 147.522 128.884,147.046 129.234,150.161 120.667 C 154.723 108.120,154.274 105.309,147.136 101.731 C 142.604 99.459,141.138 97.651,140.933 94.083 C 140.878 93.121,140.819 92.333,140.802 92.333 C 140.784 92.333,140.544 92.596,140.267 92.917 M268.311 93.913 C 266.279 96.098,265.947 96.589,265.668 97.825 C 265.253 99.666,265.855 101.220,267.694 103.059 C 269.977 105.342,269.727 109.730,267.346 109.172 C 260.509 107.567,253.924 101.201,253.426 95.714 C 253.214 93.368,252.657 93.339,251.186 95.598 C 248.437 99.818,249.650 105.419,254.224 109.634 L 256.615 111.837 254.740 113.335 C 251.668 115.791,250.517 120.316,251.762 125.045 C 251.977 125.862,251.892 125.948,250.535 126.290 C 248.474 126.809,248.102 128.486,249.979 128.796 C 257.717 130.076,261.383 126.437,257.632 121.198 C 255.833 118.686,255.651 117.321,256.787 114.841 C 257.792 112.645,257.617 112.648,261.833 114.752 C 269.455 118.557,271.944 122.296,270.181 127.291 C 269.491 129.248,270.783 129.291,272.311 127.362 C 276.656 121.876,276.264 116.411,271.237 112.377 L 269.007 110.588 270.430 109.502 C 275.039 105.983,275.631 101.368,271.912 97.950 C 270.270 96.440,270.192 96.291,270.180 94.629 C 270.163 92.463,269.791 92.320,268.311 93.913 M156.870 94.037 C 155.339 99.299,156.805 105.010,160.029 106.346 C 160.955 106.729,161.040 106.880,160.844 107.803 C 160.099 111.324,160.000 112.903,160.323 116.055 C 160.906 121.732,160.953 121.533,158.917 122.012 C 154.820 122.975,154.354 123.371,153.518 126.599 C 152.730 129.638,152.510 129.459,156.750 129.231 C 165.438 128.763,166.232 127.505,163.632 118.329 C 160.923 108.767,162.084 105.633,168.164 106.093 C 174.052 106.538,174.789 108.519,174.326 122.667 C 174.215 126.058,174.147 128.872,174.176 128.919 C 174.391 129.279,177.227 126.649,178.195 125.190 L 179.397 123.379 178.538 121.231 C 177.658 119.032,177.479 117.615,176.676 106.533 C 176.100 98.587,174.289 97.352,165.190 98.706 C 160.870 99.348,159.035 98.424,157.740 94.950 C 157.169 93.420,157.078 93.324,156.870 94.037 M180.795 96.083 C 179.139 102.642,180.573 105.923,185.448 106.731 L 187.705 107.105 187.523 111.302 C 187.423 113.611,187.260 117.825,187.160 120.667 C 187.060 123.508,186.892 126.465,186.787 127.237 L 186.595 128.641 187.714 128.330 C 189.007 127.972,190.820 126.071,191.954 123.884 L 192.742 122.366 191.855 121.600 C 190.621 120.534,189.893 116.242,190.051 110.961 L 190.167 107.088 191.583 105.552 C 194.560 102.323,193.350 99.932,188.333 99.131 C 184.145 98.463,183.339 97.970,182.507 95.570 C 181.661 93.131,181.530 93.171,180.795 96.083 M233.878 94.261 C 233.400 95.034,232.677 98.999,232.679 100.833 C 232.684 104.901,234.648 106.976,238.511 106.993 L 240.189 107.000 239.785 110.083 C 238.175 122.379,239.149 130.629,241.848 127.541 C 243.867 125.230,244.187 123.835,243.317 121.130 C 242.685 119.165,242.567 117.976,242.501 112.900 L 242.425 106.967 243.629 106.352 C 247.968 104.138,246.603 99.309,241.500 98.822 C 237.974 98.486,237.373 98.324,236.296 97.417 C 235.714 96.928,234.977 95.945,234.658 95.232 C 234.339 94.520,233.988 94.082,233.878 94.261 M209.061 95.499 C 208.196 97.398,208.914 103.167,210.236 104.938 C 211.813 107.049,212.230 107.167,218.164 107.167 C 226.391 107.167,227.202 108.729,226.395 123.000 C 226.224 126.025,226.111 128.533,226.143 128.573 C 226.505 129.024,228.695 127.167,229.570 125.667 C 230.159 124.658,230.786 123.664,230.963 123.456 C 231.175 123.209,231.124 122.849,230.814 122.406 C 229.914 121.123,229.350 117.903,228.999 112.050 C 228.385 101.815,228.005 100.566,225.166 99.482 C 223.651 98.904,223.130 98.907,216.769 99.539 C 213.548 99.859,211.524 98.615,209.767 95.234 C 209.484 94.690,209.418 94.715,209.061 95.499 M258.916 144.424 C 255.811 149.732,256.012 152.607,259.705 155.698 C 261.748 157.409,262.282 158.410,262.557 161.046 C 262.827 163.625,263.375 163.162,264.981 158.997 C 266.763 154.377,266.442 152.507,263.495 150.330 C 261.100 148.560,260.574 147.501,260.719 144.738 C 260.868 141.895,260.439 141.820,258.916 144.424 M173.702 145.449 C 170.810 149.652,170.921 151.851,174.226 155.795 C 175.554 157.379,176.368 159.285,176.607 161.373 L 176.833 163.345 178.033 162.528 C 178.817 161.994,179.490 161.111,179.977 159.979 C 181.551 156.320,181.291 154.978,178.216 150.899 C 176.868 149.111,175.928 147.446,175.470 146.035 L 174.774 143.890 173.702 145.449 M228.335 146.905 C 226.460 151.917,226.942 155.411,229.720 156.949 C 231.844 158.124,231.817 158.066,231.006 159.655 C 229.815 161.990,228.757 166.833,228.198 172.519 C 227.910 175.442,227.594 178.534,227.496 179.391 L 227.317 180.948 239.409 181.058 C 246.059 181.119,251.525 181.168,251.555 181.168 C 251.624 181.166,252.523 174.546,253.207 169.000 C 254.002 162.558,253.081 156.221,250.957 153.521 C 249.548 151.730,248.721 151.543,241.167 151.304 C 231.473 150.998,230.593 150.663,229.954 147.037 C 229.509 144.512,229.239 144.490,228.335 146.905 M143.402 147.090 C 140.966 152.595,141.849 155.753,146.600 158.531 C 146.656 158.563,146.258 159.288,145.717 160.142 C 143.903 163.001,143.089 167.439,142.501 177.667 L 142.300 181.167 154.317 181.167 L 166.333 181.167 166.337 180.167 C 166.339 179.617,166.644 177.217,167.014 174.833 C 169.236 160.549,168.233 154.904,163.063 152.593 C 161.665 151.968,159.580 151.668,152.310 151.044 C 147.402 150.623,145.460 149.566,144.509 146.799 L 144.081 145.555 143.402 147.090 M81.333 160.371 C 77.626 164.258,74.342 164.193,70.999 160.166 C 70.240 159.251,70.009 159.649,70.176 161.583 C 70.268 162.637,70.574 167.325,70.856 172.000 C 72.576 200.484,73.731 203.109,84.320 202.579 C 93.658 202.111,95.067 199.203,85.997 199.116 C 79.485 199.054,78.440 198.656,76.927 195.666 C 75.340 192.525,75.423 192.468,81.942 192.230 C 87.664 192.021,91.667 191.496,91.667 190.954 C 91.667 190.784,91.443 190.110,91.170 189.456 L 90.673 188.267 88.646 188.502 C 86.814 188.715,86.540 188.664,85.803 187.972 C 83.474 185.783,82.772 175.245,84.033 161.383 C 84.222 159.302,84.330 157.555,84.272 157.500 C 84.214 157.445,82.892 158.737,81.333 160.371 M153.333 159.007 C 163.652 160.198,163.985 160.522,164.259 169.633 L 164.423 175.099 162.961 174.852 C 158.438 174.085,152.702 174.088,147.536 174.860 L 145.905 175.104 146.089 170.302 C 146.357 163.317,147.819 158.140,149.427 158.484 C 149.834 158.571,151.592 158.806,153.333 159.007 M244.625 159.155 C 248.578 160.199,249.955 163.655,249.991 172.622 L 250.000 174.744 249.083 174.549 C 244.359 173.542,236.255 173.432,233.219 174.334 C 232.514 174.544,231.869 174.646,231.785 174.562 C 230.989 173.766,231.953 161.920,233.049 159.039 L 233.355 158.233 238.094 158.458 C 240.701 158.581,243.639 158.895,244.625 159.155 M315.157 161.833 C 315.985 167.692,316.268 181.191,315.654 185.500 C 314.878 190.946,313.927 192.205,310.882 191.825 C 309.209 191.616,309.020 191.661,308.557 192.382 C 307.088 194.669,308.355 195.099,317.972 195.576 L 323.167 195.833 323.129 197.082 C 323.014 200.876,320.774 202.109,313.599 202.329 C 308.033 202.500,307.115 202.710,307.504 203.723 C 308.356 205.944,318.064 206.757,322.030 204.940 C 326.349 202.961,327.394 197.687,329.013 169.721 C 329.443 162.298,329.521 162.617,327.651 164.180 C 323.365 167.760,321.747 167.607,317.567 163.225 L 314.968 160.500 315.157 161.833 M81.510 179.250 L 81.754 189.000 78.733 189.000 C 76.140 189.000,75.688 188.917,75.548 188.417 C 75.230 187.283,73.066 165.000,73.273 165.000 C 73.346 165.000,74.158 165.600,75.079 166.333 C 77.238 168.053,77.667 168.016,79.397 165.961 L 80.833 164.254 81.050 166.877 C 81.169 168.320,81.376 173.887,81.510 179.250 M320.134 169.333 C 321.688 171.371,322.221 171.411,324.419 169.661 C 325.344 168.925,326.149 168.371,326.209 168.431 C 326.344 168.566,324.423 188.558,324.074 190.641 L 323.819 192.167 320.694 192.263 L 317.569 192.360 317.779 187.596 C 317.895 184.977,318.089 179.421,318.211 175.250 C 318.456 166.803,318.381 167.035,320.134 169.333 M281.809 202.568 C 282.713 204.161,286.040 209.370,289.204 214.142 C 292.368 218.915,294.912 222.866,294.856 222.922 C 294.800 222.978,294.097 222.855,293.294 222.650 C 290.655 221.977,278.479 221.880,269.833 222.463 C 257.044 223.326,229.545 223.216,222.654 222.274 C 216.350 221.412,215.475 221.529,213.347 223.520 C 211.215 225.513,202.580 229.025,201.779 228.224 C 201.015 227.459,203.560 218.853,205.480 215.710 C 210.844 206.930,216.089 205.578,244.197 205.734 C 265.902 205.854,268.669 205.435,277.667 200.669 C 280.124 199.367,279.949 199.287,281.809 202.568 M124.773 202.463 C 134.598 206.447,138.170 206.798,160.195 205.945 C 182.264 205.090,190.457 207.715,195.431 217.233 C 197.107 220.439,199.015 228.350,198.107 228.326 C 195.567 228.262,188.502 225.163,186.391 223.188 C 184.555 221.471,184.178 221.392,182.314 222.343 C 179.278 223.892,166.001 224.362,145.833 223.635 C 121.806 222.769,110.501 223.029,106.198 224.548 C 104.358 225.197,104.175 225.565,109.983 216.932 C 113.412 211.834,116.019 207.534,117.388 204.722 C 118.550 202.334,119.650 200.429,119.833 200.488 C 120.017 200.547,122.240 201.436,124.773 202.463 M194.455 232.363 C 198.203 233.136,202.910 233.177,206.101 232.463 C 208.480 231.931,213.000 229.853,213.000 229.292 C 213.000 229.131,213.375 229.000,213.833 229.000 C 214.858 229.000,214.860 229.137,213.865 232.753 C 211.998 239.539,209.115 241.015,198.576 240.578 C 189.893 240.218,187.323 238.624,186.352 232.998 C 186.146 231.807,185.897 230.425,185.798 229.927 L 185.618 229.021 188.514 230.377 C 190.169 231.153,192.714 232.003,194.455 232.363 M382.992 288.426 C 381.621 289.211,379.075 290.886,377.333 292.150 C 369.976 297.488,368.457 298.457,360.833 302.675 C 346.089 310.833,334.421 316.577,325.585 320.028 L 322.669 321.167 322.668 324.583 L 322.667 328.000 323.584 328.000 C 325.907 328.000,341.945 320.110,361.406 309.393 C 373.914 302.505,377.000 300.881,377.000 301.188 C 377.000 301.297,376.400 303.575,375.666 306.252 C 372.464 317.929,371.254 324.902,372.135 326.606 C 373.088 328.448,377.648 333.673,383.156 339.233 L 388.505 344.633 385.503 345.703 C 383.851 346.292,380.025 347.894,377.000 349.264 C 373.975 350.633,370.526 352.122,369.336 352.571 C 366.745 353.549,366.678 353.638,366.672 356.100 C 366.656 362.116,370.125 361.606,385.500 353.334 C 391.915 349.883,397.696 346.935,398.713 346.596 C 398.892 346.536,395.761 343.190,391.755 339.160 C 384.275 331.635,379.276 325.959,378.746 324.390 C 378.113 322.515,381.609 306.623,385.164 295.214 C 387.898 286.436,387.677 285.745,382.992 288.426 M14.133 289.773 C 14.248 290.382,15.097 293.420,16.020 296.523 C 17.826 302.594,21.370 318.004,22.046 322.724 L 22.459 325.615 21.480 327.034 C 19.261 330.247,10.448 339.758,4.689 345.156 C 2.935 346.800,1.458 348.237,1.407 348.351 C 1.356 348.464,2.181 348.744,3.241 348.973 C 4.391 349.221,9.258 351.374,15.333 354.321 C 25.775 359.386,31.654 361.871,32.463 361.560 C 33.167 361.290,33.778 357.276,33.281 356.184 C 32.785 355.096,19.993 348.699,14.893 346.990 L 12.619 346.227 15.428 343.364 C 16.973 341.789,20.117 338.250,22.414 335.500 C 24.711 332.750,27.208 329.907,27.962 329.182 C 29.540 327.666,29.554 327.566,28.681 323.905 C 28.322 322.399,27.424 318.048,26.687 314.236 C 25.950 310.423,24.983 306.261,24.540 304.986 C 23.553 302.148,23.669 302.123,27.363 304.377 C 39.004 311.478,44.363 314.452,52.833 318.509 C 60.986 322.415,76.641 329.137,76.924 328.853 C 77.057 328.721,77.166 327.193,77.166 325.458 L 77.167 322.304 65.500 316.872 C 52.422 310.783,42.815 306.024,36.763 302.639 C 30.340 299.046,17.618 291.060,16.319 289.807 C 14.737 288.279,13.851 288.266,14.133 289.773 M354.845 322.898 C 346.312 328.228,336.995 332.229,314.574 340.192 C 275.087 354.217,255.551 358.265,218.833 360.032 C 154.914 363.109,86.901 348.962,45.454 323.969 C 43.962 323.069,42.672 322.333,42.589 322.333 C 42.506 322.333,42.341 324.846,42.224 327.917 C 41.590 344.507,37.402 368.504,33.167 379.811 C 31.819 383.408,31.833 383.333,32.534 383.333 C 33.563 383.333,38.885 385.287,43.805 387.470 C 85.499 405.977,132.823 416.029,187.667 418.030 C 242.828 420.042,302.490 409.507,346.000 390.071 C 355.199 385.962,360.192 384.048,364.900 382.824 C 366.674 382.364,368.175 381.936,368.236 381.875 C 368.297 381.814,367.832 380.204,367.203 378.299 C 366.573 376.393,365.663 372.583,365.181 369.833 C 364.698 367.083,363.559 360.858,362.650 356.000 C 359.891 341.265,359.008 334.757,358.399 324.662 L 358.167 320.823 354.845 322.898 M352.778 337.917 C 354.010 352.837,356.397 367.278,358.865 374.742 C 359.333 376.158,359.711 377.421,359.705 377.547 C 359.700 377.674,358.637 378.046,357.343 378.375 C 356.050 378.703,353.231 379.797,351.079 380.805 C 347.363 382.545,335.183 387.319,324.667 391.157 C 260.886 414.430,175.949 418.301,104.000 401.213 C 90.679 398.049,61.441 388.406,54.333 384.833 C 50.207 382.758,44.604 380.333,42.360 379.652 L 40.107 378.968 41.079 376.234 C 44.364 366.992,47.406 348.676,47.466 337.775 L 47.500 331.716 48.500 332.314 C 123.813 377.323,275.093 377.609,348.833 332.883 C 350.483 331.882,351.917 331.049,352.020 331.032 C 352.123 331.014,352.464 334.112,352.778 337.917 M57.814 348.250 C 57.038 352.728,54.543 363.212,52.535 370.437 C 51.644 373.642,51.578 373.482,53.922 373.810 C 54.704 373.920,57.344 374.907,59.790 376.005 C 65.352 378.500,65.122 378.514,67.213 375.575 C 69.265 372.691,69.254 372.679,64.766 372.672 C 61.041 372.666,58.253 372.206,57.667 371.500 C 57.380 371.154,57.890 368.611,59.818 360.773 C 61.209 355.123,62.414 350.192,62.496 349.816 C 62.619 349.254,62.263 348.944,60.483 348.066 C 57.843 346.764,58.074 346.748,57.814 348.250 M337.032 348.212 C 329.726 349.804,326.921 352.596,327.419 357.778 C 327.714 360.845,329.093 361.676,338.000 364.156 C 342.998 365.548,344.191 366.535,344.552 369.578 C 345.079 374.029,340.302 374.816,333.049 371.474 L 330.597 370.345 330.817 371.256 C 331.129 372.554,332.940 376.381,333.571 377.078 C 334.616 378.234,340.111 377.306,344.039 375.311 C 351.860 371.338,350.483 362.105,341.732 359.846 C 333.539 357.731,331.366 356.103,332.779 353.139 C 334.068 350.437,336.678 350.449,341.409 353.180 C 345.274 355.411,345.280 355.403,343.183 350.774 C 341.461 346.972,341.894 347.153,337.032 348.212 M76.991 356.722 C 76.780 357.517,75.946 360.395,75.136 363.118 C 70.659 378.185,71.421 382.325,79.113 384.726 C 87.222 387.257,91.506 382.693,95.488 367.283 L 96.922 361.733 94.931 361.174 C 92.493 360.490,92.831 359.981,92.014 365.570 C 90.344 377.004,87.723 381.698,82.968 381.769 C 76.572 381.866,76.002 376.345,80.883 361.562 C 81.719 359.030,82.349 356.922,82.285 356.878 C 82.220 356.835,81.267 356.525,80.167 356.190 C 79.067 355.855,77.988 355.513,77.770 355.429 C 77.531 355.338,77.222 355.851,76.991 356.722 M309.812 358.473 L 308.124 359.241 307.717 364.679 C 307.318 370.009,306.031 378.419,304.664 384.627 C 303.840 388.370,303.648 388.109,306.588 387.243 L 309.000 386.533 309.001 385.016 C 309.003 382.370,309.705 377.517,310.154 377.052 C 310.392 376.805,312.354 376.089,314.514 375.461 L 318.442 374.319 319.254 375.076 C 319.701 375.493,320.826 377.073,321.754 378.587 C 322.682 380.102,323.610 381.482,323.817 381.653 C 324.219 381.987,329.702 380.353,329.572 379.939 C 329.532 379.813,327.834 377.713,325.797 375.272 C 323.761 372.831,321.072 369.408,319.823 367.667 C 316.119 362.504,312.263 357.665,311.868 357.686 C 311.666 357.696,310.740 358.051,309.812 358.473 M102.213 363.968 C 102.323 364.444,102.786 365.733,103.242 366.833 C 104.646 370.217,106.662 376.128,106.665 376.868 C 106.667 377.582,101.846 381.479,97.000 384.682 C 95.808 385.469,94.699 386.230,94.534 386.373 C 94.143 386.711,97.820 388.333,98.979 388.333 C 99.965 388.333,100.954 387.415,102.589 384.981 C 103.889 383.048,106.145 381.000,106.977 381.000 C 108.356 381.000,109.050 382.616,110.622 389.488 L 111.229 392.143 114.364 392.696 C 116.089 393.001,117.547 393.209,117.605 393.159 C 117.662 393.109,116.787 390.704,115.660 387.815 C 114.532 384.926,113.288 381.144,112.895 379.411 L 112.179 376.260 113.173 375.450 C 113.720 375.005,116.219 373.259,118.727 371.571 L 123.286 368.500 121.227 367.918 C 118.305 367.092,118.479 367.019,115.142 370.500 C 110.872 374.954,110.622 374.869,109.331 368.523 C 108.523 364.555,108.976 365.049,105.159 363.982 L 102.013 363.102 102.213 363.968 M295.500 363.877 C 291.716 365.424,282.841 367.333,279.432 367.333 C 278.487 367.333,278.433 367.416,278.058 369.455 C 277.182 374.205,277.657 375.071,279.886 372.788 C 283.451 369.137,286.189 368.647,287.078 371.500 C 288.113 374.818,289.899 382.214,290.862 387.167 C 291.361 389.733,291.785 391.859,291.803 391.890 C 291.854 391.978,297.442 390.336,297.587 390.190 C 297.658 390.120,297.496 389.636,297.228 389.114 C 296.544 387.785,295.646 384.640,293.514 376.100 C 291.465 367.892,291.386 367.333,292.272 367.333 C 293.651 367.333,296.970 368.110,298.940 368.893 C 300.099 369.354,301.104 369.673,301.175 369.603 C 301.420 369.358,298.208 363.000,297.855 363.029 C 297.660 363.046,296.600 363.427,295.500 363.877 M314.293 367.500 C 315.987 369.854,316.794 371.244,316.549 371.384 C 315.884 371.763,310.669 373.113,310.505 372.949 C 310.418 372.863,310.494 371.902,310.672 370.813 C 310.850 369.724,310.997 367.658,310.998 366.222 C 311.000 362.967,311.045 362.984,314.293 367.500 M268.892 369.254 C 267.849 369.681,267.654 369.902,267.816 370.471 C 268.324 372.246,269.689 381.230,270.521 388.281 C 271.179 393.851,271.569 396.111,271.892 396.235 C 272.814 396.589,278.051 394.686,277.857 394.067 C 276.969 391.231,274.752 379.444,274.019 373.667 C 273.333 368.250,273.523 368.662,271.735 368.699 C 270.872 368.717,269.593 368.966,268.892 369.254 M136.525 371.048 C 136.430 371.480,135.813 374.908,135.154 378.667 C 134.496 382.425,133.441 387.971,132.812 390.991 C 132.182 394.011,131.667 396.523,131.667 396.574 C 131.667 396.625,132.476 396.667,133.465 396.667 C 136.252 396.667,141.799 397.277,145.774 398.021 C 150.233 398.855,150.396 398.803,151.651 396.148 C 152.995 393.303,153.008 393.324,150.417 394.072 C 148.014 394.766,139.165 395.282,138.465 394.770 C 138.085 394.492,139.231 386.631,139.780 385.750 C 140.190 385.091,141.872 385.261,144.216 386.199 C 146.837 387.247,146.796 387.280,146.288 384.521 L 145.878 382.295 144.575 382.516 C 143.858 382.637,142.448 382.633,141.441 382.507 L 139.612 382.278 139.834 380.556 C 140.190 377.796,140.965 374.235,141.278 373.922 C 141.965 373.235,148.252 375.992,150.750 378.075 C 151.621 378.801,152.333 379.300,152.333 379.184 C 152.333 378.881,151.330 373.944,151.130 373.262 C 151.034 372.934,150.508 372.614,149.898 372.513 C 149.312 372.415,146.433 371.963,143.500 371.508 C 140.567 371.053,137.836 370.587,137.432 370.472 C 136.847 370.306,136.662 370.424,136.525 371.048 M250.500 371.574 C 249.950 371.651,247.796 372.154,245.714 372.690 C 243.632 373.227,241.550 373.667,241.087 373.667 C 240.299 373.667,240.260 373.745,240.463 374.917 C 241.395 380.286,241.709 383.604,242.001 391.140 C 242.186 395.893,242.383 399.827,242.440 399.884 C 242.592 400.036,247.653 399.125,247.872 398.906 C 247.975 398.803,247.898 397.680,247.701 396.412 C 247.505 395.143,247.245 392.604,247.125 390.770 L 246.906 387.435 247.995 387.218 C 250.744 386.668,251.414 386.889,252.667 388.759 C 256.518 394.507,263.352 398.727,268.072 398.272 C 269.963 398.089,269.543 397.302,266.350 395.048 C 262.742 392.502,258.991 388.935,256.876 386.040 L 255.323 383.913 256.019 382.873 C 261.148 375.210,258.802 370.407,250.500 371.574 M157.222 375.116 C 155.539 378.165,155.182 380.819,156.625 379.553 C 158.032 378.319,160.224 377.553,162.790 377.400 L 165.413 377.243 165.185 381.705 C 164.980 385.707,163.951 396.175,163.444 399.417 L 163.248 400.667 165.249 400.667 C 166.350 400.667,167.738 400.764,168.334 400.883 L 169.418 401.100 169.258 399.800 C 168.979 397.538,170.321 377.901,170.786 377.436 C 171.139 377.083,175.199 379.245,177.114 380.805 C 178.183 381.675,179.121 382.324,179.199 382.245 C 179.333 382.112,178.839 377.818,178.481 376.000 L 178.317 375.167 173.575 375.133 C 168.965 375.099,163.662 374.467,160.094 373.525 L 158.354 373.066 157.222 375.116 M224.833 374.847 C 223.183 375.083,220.959 375.289,219.890 375.305 C 217.950 375.333,217.947 375.335,218.143 376.250 C 218.421 377.554,218.988 391.592,218.994 397.344 L 219.000 402.187 222.583 401.781 C 224.554 401.558,228.492 401.269,231.333 401.140 L 236.500 400.904 237.500 398.735 C 238.050 397.543,238.550 396.439,238.611 396.283 C 238.814 395.766,237.540 395.995,233.667 397.170 C 225.132 399.760,224.000 399.171,224.000 392.141 C 224.000 388.630,224.008 388.596,224.750 388.779 C 226.692 389.258,232.333 389.424,232.333 389.003 C 232.333 386.843,231.501 384.300,230.855 384.487 C 223.615 386.578,223.741 386.636,223.644 381.167 L 223.585 377.833 226.043 377.869 C 229.028 377.912,231.623 378.628,233.791 380.005 L 235.414 381.037 235.191 379.768 C 234.209 374.196,233.091 373.664,224.833 374.847 M251.367 375.004 C 255.634 376.189,253.708 382.529,248.473 384.528 C 246.630 385.232,246.752 385.389,246.366 381.816 C 245.681 375.485,245.700 375.204,246.833 374.961 C 248.397 374.624,250.058 374.640,251.367 375.004 M192.750 375.597 C 191.237 375.650,190.000 375.749,190.000 375.817 C 190.000 375.885,190.727 377.566,191.616 379.553 C 192.505 381.541,194.529 386.467,196.115 390.500 C 202.439 406.584,203.309 406.953,207.201 395.200 C 208.983 389.820,211.317 383.823,213.300 379.532 C 215.016 375.817,215.053 375.999,212.583 376.005 C 209.136 376.012,209.224 375.933,208.359 379.770 C 207.637 382.974,205.157 390.993,204.218 393.162 L 203.788 394.158 202.258 391.329 C 200.447 387.978,198.478 383.379,196.980 379.000 C 195.667 375.159,196.066 375.480,192.750 375.597 " stroke="none" fill="#1c1c1c" fill-rule="evenodd"></path><path id="path2" d="M114.935 68.242 C 114.651 68.567,114.162 69.624,113.847 70.590 C 112.889 73.533,109.172 77.611,105.333 79.931 L 103.167 81.241 103.060 122.870 C 102.999 146.803,103.114 172.223,103.330 182.667 C 103.705 200.763,103.535 208.775,102.638 215.221 C 101.954 220.136,102.883 219.648,107.503 212.667 C 116.077 199.712,116.378 198.494,115.520 180.202 C 115.130 171.898,115.008 158.744,114.974 121.500 C 114.932 74.641,114.991 70.639,115.752 69.077 C 116.255 68.043,115.649 67.424,114.935 68.242 M285.143 69.167 C 285.781 73.319,285.872 86.605,285.579 132.833 C 285.135 203.008,285.116 196.801,285.785 199.325 C 286.590 202.359,288.792 205.777,295.393 214.243 C 298.251 217.907,298.146 217.937,297.624 213.618 C 297.301 210.942,297.227 195.641,297.294 145.500 L 297.380 80.833 295.660 79.833 C 293.454 78.552,289.379 74.294,286.886 70.667 C 284.985 67.901,284.944 67.865,285.143 69.167 M277.833 200.730 C 268.345 205.624,266.960 205.830,243.333 205.853 C 221.856 205.875,220.545 205.966,215.523 207.789 C 207.967 210.532,203.192 217.070,202.128 226.130 L 201.897 228.093 203.199 227.855 C 206.980 227.161,210.552 225.622,212.974 223.643 C 215.834 221.306,216.494 221.223,223.887 222.276 C 229.190 223.031,261.541 223.052,270.167 222.305 C 277.010 221.713,289.857 221.769,292.583 222.403 C 293.729 222.669,294.667 222.816,294.667 222.730 C 294.667 222.643,292.214 218.881,289.216 214.370 C 286.218 209.858,282.909 204.704,281.863 202.917 C 280.817 201.129,279.932 199.674,279.897 199.683 C 279.862 199.692,278.933 200.163,277.833 200.730 M117.420 204.943 C 116.176 207.470,113.275 212.246,110.198 216.833 C 107.370 221.050,105.093 224.538,105.139 224.584 C 105.185 224.630,106.410 224.347,107.862 223.956 C 111.730 222.913,124.327 222.761,144.977 223.507 C 166.245 224.276,178.939 223.875,182.000 222.338 C 184.385 221.140,184.521 221.159,186.414 222.938 C 188.743 225.127,195.045 228.000,197.517 228.000 C 199.779 228.000,195.790 216.600,192.277 213.025 C 185.920 206.555,179.698 205.378,156.500 206.260 C 138.696 206.937,133.970 206.386,124.576 202.537 C 122.065 201.508,119.896 200.678,119.755 200.693 C 119.615 200.707,118.564 202.620,117.420 204.943 " stroke="none" fill="#fabb04" fill-rule="evenodd"></path><path id="path3" d="M244.667 8.691 C 207.348 9.098,62.330 9.570,58.828 9.296 C 55.180 9.010,55.504 8.554,56.024 13.234 C 56.373 16.378,56.443 31.631,56.373 89.333 C 56.250 191.968,56.919 204.229,63.903 227.333 C 75.444 265.509,113.574 295.823,178.333 318.308 C 182.642 319.804,188.642 322.017,191.667 323.225 C 199.077 326.184,200.019 326.258,204.500 324.244 C 206.333 323.419,209.694 322.189,211.968 321.509 C 256.251 308.275,297.900 284.238,317.966 260.333 C 325.993 250.770,335.219 234.214,337.359 225.531 C 337.680 224.231,338.465 221.142,339.105 218.667 C 341.364 209.921,343.313 195.675,343.961 183.167 C 344.124 180.029,344.177 143.804,344.081 102.000 C 343.909 27.411,344.025 15.830,344.996 10.699 C 345.170 9.778,345.162 9.040,344.975 8.849 C 344.567 8.431,278.142 8.326,244.667 8.691 M285.153 59.705 C 285.652 60.460,287.861 63.486,290.061 66.429 L 294.062 71.780 297.939 71.697 C 300.071 71.651,301.943 71.535,302.098 71.439 C 302.254 71.343,303.045 71.364,303.857 71.486 L 305.333 71.708 305.333 151.187 L 305.333 230.667 268.048 230.667 C 231.353 230.667,225.168 230.521,219.959 229.536 C 217.631 229.096,217.615 229.098,217.843 229.796 C 221.892 242.205,217.903 246.097,200.667 246.553 C 183.408 247.011,178.600 243.260,181.685 231.746 C 182.042 230.415,182.333 229.259,182.333 229.178 C 182.333 229.096,181.741 229.239,181.017 229.494 C 177.040 230.897,177.956 230.876,128.060 230.750 L 94.954 230.667 95.146 166.083 C 95.252 130.563,95.423 97.525,95.527 92.667 C 95.699 84.677,95.361 75.886,94.768 72.923 L 94.570 71.932 97.368 72.124 C 98.907 72.230,101.533 72.405,103.202 72.513 L 106.238 72.709 109.729 68.105 C 111.649 65.572,113.938 62.420,114.815 61.099 L 116.410 58.699 119.622 60.311 C 130.954 65.997,136.875 66.492,170.000 64.522 C 187.739 63.468,197.154 69.376,199.434 82.993 L 199.849 85.470 200.715 81.968 C 202.909 73.102,207.647 67.826,215.336 65.685 C 220.090 64.362,224.938 64.177,237.742 64.833 C 261.281 66.039,268.379 65.224,279.987 59.984 C 284.308 58.033,284.055 58.047,285.153 59.705 M317.974 70.974 C 322.065 75.116,324.333 75.306,329.273 71.922 C 331.086 70.681,331.120 70.727,330.686 73.847 C 330.488 75.266,330.101 80.569,329.825 85.630 C 328.162 116.151,326.150 119.789,312.203 117.503 C 310.573 117.235,309.214 116.976,309.184 116.925 C 308.508 115.794,308.162 110.070,308.547 106.382 L 308.762 104.333 310.631 104.333 C 314.082 104.332,315.687 102.807,316.318 98.929 C 317.224 93.358,317.035 82.670,315.860 73.125 C 315.253 68.196,315.242 68.207,317.974 70.974 M83.775 84.083 C 83.446 102.591,84.185 105.316,89.537 105.328 L 91.574 105.333 91.784 107.083 C 92.102 109.733,92.042 113.540,91.645 115.819 L 91.290 117.859 87.895 118.513 C 74.646 121.065,72.073 116.329,70.506 86.500 C 70.226 81.183,69.907 76.202,69.796 75.431 L 69.595 74.028 72.548 75.342 C 77.025 77.335,78.032 77.171,82.500 73.716 C 83.233 73.149,83.866 72.681,83.906 72.676 C 83.946 72.671,83.887 77.804,83.775 84.083 M84.033 161.383 C 82.777 175.194,83.474 185.784,85.783 187.953 C 86.465 188.593,86.881 188.686,88.688 188.600 L 90.797 188.500 91.368 190.016 C 91.885 191.389,91.897 191.890,91.500 195.335 C 91.100 198.803,91.110 199.174,91.614 199.550 C 94.186 201.464,83.800 203.625,78.889 202.197 C 73.399 200.601,72.343 196.633,70.856 172.000 C 70.574 167.325,70.268 162.637,70.176 161.583 C 70.009 159.649,70.240 159.251,70.999 160.166 C 74.342 164.193,77.626 164.258,81.333 160.371 C 82.892 158.737,84.214 157.445,84.272 157.500 C 84.330 157.555,84.222 159.302,84.033 161.383 M320.895 166.309 C 322.654 167.174,324.924 166.458,327.651 164.180 C 329.521 162.617,329.443 162.298,329.013 169.721 C 327.394 197.687,326.349 202.961,322.030 204.940 C 317.363 207.078,305.951 205.507,307.535 202.944 C 307.646 202.763,307.718 200.714,307.694 198.391 C 307.634 192.572,308.007 191.795,310.798 191.924 C 314.009 192.072,314.882 190.917,315.654 185.500 C 316.268 181.191,315.985 167.692,315.157 161.833 L 314.968 160.500 317.567 163.225 C 318.997 164.724,320.494 166.112,320.895 166.309 " stroke="none" fill="#04346c" fill-rule="evenodd"></path><path id="path4" d="M119.081 118.250 C 119.125 147.537,119.200 162.875,119.247 152.333 C 119.475 101.481,119.476 65.000,119.250 65.000 C 119.112 65.000,119.036 88.962,119.081 118.250 M229.083 68.581 C 230.321 68.645,232.346 68.645,233.583 68.581 C 234.821 68.516,233.808 68.464,231.333 68.464 C 228.858 68.464,227.846 68.516,229.083 68.581 M163.250 68.902 C 163.662 68.981,164.337 68.981,164.750 68.902 C 165.162 68.822,164.825 68.757,164.000 68.757 C 163.175 68.757,162.837 68.822,163.250 68.902 M239.583 68.902 C 239.996 68.981,240.671 68.981,241.083 68.902 C 241.496 68.822,241.158 68.757,240.333 68.757 C 239.508 68.757,239.171 68.822,239.583 68.902 M158.254 69.236 C 158.669 69.315,159.269 69.312,159.587 69.229 C 159.906 69.146,159.567 69.080,158.833 69.084 C 158.100 69.088,157.839 69.156,158.254 69.236 M244.750 69.230 C 245.071 69.314,245.596 69.314,245.917 69.230 C 246.237 69.146,245.975 69.077,245.333 69.077 C 244.692 69.077,244.429 69.146,244.750 69.230 M153.921 69.569 C 154.335 69.649,154.935 69.646,155.254 69.562 C 155.573 69.479,155.233 69.414,154.500 69.417 C 153.767 69.421,153.506 69.489,153.921 69.569 M249.254 69.569 C 249.669 69.649,250.269 69.646,250.587 69.562 C 250.906 69.479,250.567 69.414,249.833 69.417 C 249.100 69.421,248.839 69.489,249.254 69.569 M149.254 69.902 C 149.669 69.982,150.269 69.979,150.587 69.896 C 150.906 69.812,150.567 69.747,149.833 69.751 C 149.100 69.754,148.839 69.823,149.254 69.902 M255.583 69.913 C 256.729 69.979,258.604 69.979,259.750 69.913 C 260.896 69.848,259.958 69.795,257.667 69.795 C 255.375 69.795,254.438 69.848,255.583 69.913 M139.263 70.247 C 140.416 70.312,142.216 70.312,143.263 70.246 C 144.310 70.180,143.367 70.127,141.167 70.127 C 138.967 70.128,138.110 70.182,139.263 70.247 M115.077 73.000 C 115.077 73.642,115.146 73.904,115.230 73.583 C 115.314 73.262,115.314 72.737,115.230 72.417 C 115.146 72.096,115.077 72.358,115.077 73.000 M285.411 74.000 C 285.411 74.642,285.479 74.904,285.563 74.583 C 285.647 74.262,285.647 73.737,285.563 73.417 C 285.479 73.096,285.411 73.358,285.411 74.000 M208.818 74.750 L 207.500 76.167 208.917 74.849 C 210.234 73.624,210.487 73.333,210.234 73.333 C 210.180 73.333,209.542 73.971,208.818 74.750 M191.167 75.000 C 191.883 75.733,192.544 76.333,192.635 76.333 C 192.727 76.333,192.216 75.733,191.500 75.000 C 190.784 74.267,190.123 73.667,190.031 73.667 C 189.940 73.667,190.451 74.267,191.167 75.000 M319.112 78.667 C 319.112 80.042,319.171 80.604,319.243 79.917 C 319.315 79.229,319.315 78.104,319.243 77.417 C 319.171 76.729,319.112 77.292,319.112 78.667 M114.794 82.167 C 114.795 84.367,114.849 85.223,114.914 84.070 C 114.979 82.917,114.979 81.117,114.913 80.070 C 114.847 79.023,114.793 79.967,114.794 82.167 M285.808 86.667 C 285.808 90.608,285.856 92.221,285.915 90.250 C 285.974 88.279,285.974 85.054,285.915 83.083 C 285.856 81.112,285.808 82.725,285.808 86.667 M326.450 84.333 C 326.450 85.892,326.507 86.529,326.577 85.750 C 326.648 84.971,326.648 83.696,326.577 82.917 C 326.507 82.137,326.450 82.775,326.450 84.333 M73.751 85.167 C 73.754 85.900,73.823 86.161,73.902 85.746 C 73.982 85.331,73.979 84.731,73.896 84.413 C 73.812 84.094,73.747 84.433,73.751 85.167 M80.795 89.667 C 80.795 91.958,80.848 92.896,80.913 91.750 C 80.979 90.604,80.979 88.729,80.913 87.583 C 80.848 86.438,80.795 87.375,80.795 89.667 M74.100 91.333 C 74.100 92.342,74.162 92.754,74.239 92.250 C 74.315 91.746,74.315 90.921,74.239 90.417 C 74.162 89.912,74.100 90.325,74.100 91.333 M128.146 93.417 L 127.167 94.500 128.219 93.550 C 129.171 92.692,129.287 92.660,129.431 93.217 C 129.560 93.721,129.596 93.697,129.628 93.083 C 129.681 92.056,129.298 92.142,128.146 93.417 M326.095 94.167 C 326.098 95.083,326.163 95.419,326.239 94.912 C 326.316 94.405,326.314 93.655,326.235 93.245 C 326.156 92.835,326.093 93.250,326.095 94.167 M198.411 94.000 C 198.411 94.642,198.479 94.904,198.563 94.583 C 198.647 94.263,198.647 93.737,198.563 93.417 C 198.479 93.096,198.411 93.358,198.411 94.000 M202.095 95.167 C 202.098 96.083,202.163 96.419,202.239 95.912 C 202.316 95.405,202.314 94.655,202.235 94.245 C 202.156 93.835,202.093 94.250,202.095 95.167 M115.161 133.333 C 115.161 155.058,115.201 163.946,115.250 153.083 C 115.299 142.221,115.299 124.446,115.250 113.583 C 115.201 102.721,115.161 111.608,115.161 133.333 M80.779 98.000 C 80.779 99.375,80.838 99.938,80.909 99.250 C 80.981 98.563,80.981 97.438,80.909 96.750 C 80.838 96.063,80.779 96.625,80.779 98.000 M74.429 98.167 C 74.431 99.083,74.496 99.419,74.573 98.912 C 74.649 98.405,74.647 97.655,74.568 97.245 C 74.489 96.835,74.426 97.250,74.429 98.167 M208.429 98.167 C 208.431 99.083,208.496 99.419,208.573 98.912 C 208.649 98.405,208.647 97.655,208.568 97.245 C 208.489 96.835,208.426 97.250,208.429 98.167 M319.095 98.167 C 319.098 99.083,319.163 99.419,319.239 98.912 C 319.316 98.405,319.314 97.655,319.235 97.245 C 319.156 96.835,319.093 97.250,319.095 98.167 M156.100 99.333 C 156.100 100.342,156.162 100.754,156.239 100.250 C 156.315 99.746,156.315 98.921,156.239 98.417 C 156.162 97.912,156.100 98.325,156.100 99.333 M168.917 98.235 C 169.329 98.315,170.004 98.315,170.417 98.235 C 170.829 98.156,170.492 98.091,169.667 98.091 C 168.842 98.091,168.504 98.156,168.917 98.235 M162.088 98.906 C 162.595 98.982,163.345 98.980,163.755 98.901 C 164.165 98.822,163.750 98.760,162.833 98.762 C 161.917 98.765,161.581 98.829,162.088 98.906 M221.583 98.902 C 221.996 98.981,222.671 98.981,223.083 98.902 C 223.496 98.822,223.158 98.757,222.333 98.757 C 221.508 98.757,221.171 98.822,221.583 98.902 M198.787 102.333 C 198.787 104.075,198.843 104.787,198.912 103.917 C 198.980 103.046,198.980 101.621,198.912 100.750 C 198.843 99.879,198.787 100.592,198.787 102.333 M201.751 100.500 C 201.754 101.233,201.823 101.494,201.902 101.079 C 201.982 100.665,201.979 100.065,201.896 99.746 C 201.812 99.427,201.747 99.767,201.751 100.500 M232.424 100.667 C 232.424 101.492,232.489 101.829,232.569 101.417 C 232.648 101.004,232.648 100.329,232.569 99.917 C 232.489 99.504,232.424 99.842,232.424 100.667 M74.744 102.667 C 74.744 103.308,74.813 103.571,74.896 103.250 C 74.980 102.929,74.980 102.404,74.896 102.083 C 74.813 101.763,74.744 102.025,74.744 102.667 M274.411 102.667 C 274.411 103.308,274.479 103.571,274.563 103.250 C 274.647 102.929,274.647 102.404,274.563 102.083 C 274.479 101.763,274.411 102.025,274.411 102.667 M318.744 103.000 C 318.744 103.642,318.813 103.904,318.896 103.583 C 318.980 103.263,318.980 102.737,318.896 102.417 C 318.813 102.096,318.744 102.358,318.744 103.000 M201.433 106.667 C 201.433 107.675,201.496 108.087,201.572 107.583 C 201.648 107.079,201.648 106.254,201.572 105.750 C 201.496 105.246,201.433 105.658,201.433 106.667 M322.083 105.230 C 322.404 105.314,322.929 105.314,323.250 105.230 C 323.571 105.146,323.308 105.077,322.667 105.077 C 322.025 105.077,321.762 105.146,322.083 105.230 M75.106 105.833 C 75.163 106.406,75.430 106.504,77.003 106.532 L 78.833 106.564 77.105 106.432 C 75.841 106.335,75.330 106.147,75.207 105.733 C 75.084 105.319,75.056 105.346,75.106 105.833 M176.751 106.500 C 176.754 107.233,176.823 107.494,176.902 107.079 C 176.982 106.665,176.979 106.065,176.896 105.746 C 176.812 105.427,176.747 105.767,176.751 106.500 M242.461 107.147 C 242.360 107.411,242.336 107.899,242.408 108.231 C 242.489 108.607,242.603 108.426,242.711 107.750 C 242.893 106.615,242.775 106.330,242.461 107.147 M218.587 107.236 C 219.002 107.315,219.602 107.312,219.921 107.229 C 220.239 107.146,219.900 107.080,219.167 107.084 C 218.433 107.088,218.173 107.156,218.587 107.236 M228.757 108.333 C 228.757 109.158,228.822 109.496,228.902 109.083 C 228.981 108.671,228.981 107.996,228.902 107.583 C 228.822 107.171,228.757 107.508,228.757 108.333 M308.481 110.333 C 308.499 113.729,308.523 113.835,309.255 113.878 C 309.860 113.913,309.879 113.892,309.350 113.773 C 308.754 113.638,308.678 113.290,308.575 110.228 L 308.461 106.833 308.481 110.333 M91.591 110.083 C 91.756 114.456,91.887 114.890,91.944 111.250 C 91.975 109.279,91.888 107.666,91.750 107.666 C 91.612 107.666,91.541 108.753,91.591 110.083 M153.100 109.333 C 153.100 110.342,153.162 110.754,153.239 110.250 C 153.315 109.746,153.315 108.921,153.239 108.417 C 153.162 107.912,153.100 108.325,153.100 109.333 M253.167 109.000 C 253.883 109.733,254.544 110.333,254.635 110.333 C 254.727 110.333,254.216 109.733,253.500 109.000 C 252.784 108.267,252.123 107.667,252.031 107.667 C 251.940 107.667,252.451 108.267,253.167 109.000 M316.417 108.230 C 316.737 108.314,317.262 108.314,317.583 108.230 C 317.904 108.146,317.642 108.077,317.000 108.077 C 316.358 108.077,316.096 108.146,316.417 108.230 M322.088 108.573 C 322.595 108.649,323.345 108.647,323.755 108.568 C 324.165 108.489,323.750 108.426,322.833 108.429 C 321.917 108.431,321.581 108.496,322.088 108.573 M187.411 109.667 C 187.411 110.308,187.479 110.571,187.563 110.250 C 187.647 109.929,187.647 109.404,187.563 109.083 C 187.479 108.763,187.411 109.025,187.411 109.667 M79.083 109.563 C 79.404 109.647,79.929 109.647,80.250 109.563 C 80.571 109.479,80.308 109.411,79.667 109.411 C 79.025 109.411,78.762 109.479,79.083 109.563 M162.084 111.167 C 162.088 111.900,162.156 112.161,162.236 111.746 C 162.315 111.331,162.312 110.731,162.229 110.413 C 162.146 110.094,162.080 110.433,162.084 111.167 M76.045 111.025 C 76.016 111.582,76.322 112.168,76.917 112.692 L 77.833 113.500 77.113 112.667 C 76.716 112.208,76.324 111.458,76.241 111.000 L 76.091 110.167 76.045 111.025 M177.095 112.500 C 177.098 113.417,177.163 113.752,177.239 113.245 C 177.316 112.739,177.314 111.989,177.235 111.579 C 177.156 111.169,177.093 111.583,177.095 112.500 M198.448 113.833 C 198.449 115.300,198.507 115.859,198.578 115.075 C 198.648 114.291,198.647 113.091,198.576 112.408 C 198.504 111.725,198.446 112.367,198.448 113.833 M242.450 114.000 C 242.450 115.558,242.507 116.196,242.577 115.417 C 242.648 114.638,242.648 113.362,242.577 112.583 C 242.507 111.804,242.450 112.442,242.450 114.000 M201.112 114.667 C 201.112 116.042,201.171 116.604,201.243 115.917 C 201.315 115.229,201.315 114.104,201.243 113.417 C 201.171 112.729,201.112 113.292,201.112 114.667 M229.091 114.000 C 229.091 114.825,229.156 115.162,229.235 114.750 C 229.315 114.337,229.315 113.662,229.235 113.250 C 229.156 112.837,229.091 113.175,229.091 114.000 M130.424 114.333 C 130.424 115.158,130.489 115.496,130.569 115.083 C 130.648 114.671,130.648 113.996,130.569 113.583 C 130.489 113.171,130.424 113.508,130.424 114.333 M190.077 115.000 C 190.077 115.642,190.146 115.904,190.230 115.583 C 190.314 115.263,190.314 114.737,190.230 114.417 C 190.146 114.096,190.077 114.358,190.077 115.000 M160.077 115.333 C 160.077 115.975,160.146 116.237,160.230 115.917 C 160.314 115.596,160.314 115.071,160.230 114.750 C 160.146 114.429,160.077 114.692,160.077 115.333 M187.125 117.833 C 187.125 119.850,187.180 120.632,187.247 119.571 C 187.313 118.510,187.312 116.860,187.245 115.904 C 187.178 114.949,187.124 115.817,187.125 117.833 M226.453 117.333 C 226.453 119.075,226.510 119.787,226.578 118.917 C 226.647 118.046,226.647 116.621,226.578 115.750 C 226.510 114.879,226.453 115.592,226.453 117.333 M315.589 114.575 C 316.188 114.649,317.088 114.648,317.589 114.572 C 318.090 114.495,317.600 114.435,316.500 114.437 C 315.400 114.438,314.990 114.501,315.589 114.575 M239.084 115.833 C 239.088 116.567,239.156 116.827,239.236 116.413 C 239.315 115.998,239.312 115.398,239.229 115.079 C 239.146 114.761,239.080 115.100,239.084 115.833 M85.917 115.235 C 86.329 115.315,87.004 115.315,87.417 115.235 C 87.829 115.156,87.492 115.091,86.667 115.091 C 85.842 115.091,85.504 115.156,85.917 115.235 M256.084 117.500 C 256.088 118.233,256.156 118.494,256.236 118.079 C 256.315 117.665,256.312 117.065,256.229 116.746 C 256.146 116.427,256.080 116.767,256.084 117.500 M275.411 119.667 C 275.411 120.308,275.479 120.571,275.563 120.250 C 275.647 119.929,275.647 119.404,275.563 119.083 C 275.479 118.763,275.411 119.025,275.411 119.667 M136.083 122.230 C 136.404 122.314,136.929 122.314,137.250 122.230 C 137.571 122.146,137.308 122.077,136.667 122.077 C 136.025 122.077,135.762 122.146,136.083 122.230 M142.417 122.230 C 142.737 122.314,143.262 122.314,143.583 122.230 C 143.904 122.146,143.642 122.077,143.000 122.077 C 142.358 122.077,142.096 122.146,142.417 122.230 M165.091 124.667 C 165.091 125.492,165.156 125.829,165.235 125.417 C 165.315 125.004,165.315 124.329,165.235 123.917 C 165.156 123.504,165.091 123.842,165.091 124.667 M226.103 125.500 C 226.105 126.600,226.167 127.010,226.242 126.411 C 226.316 125.812,226.314 124.912,226.238 124.411 C 226.162 123.910,226.101 124.400,226.103 125.500 M174.103 125.833 C 174.105 126.933,174.167 127.343,174.242 126.744 C 174.316 126.145,174.314 125.245,174.238 124.744 C 174.162 124.243,174.101 124.733,174.103 125.833 M197.919 169.032 C 197.872 193.799,197.946 214.133,198.083 214.218 C 198.221 214.303,198.333 194.039,198.333 169.186 C 198.333 144.334,198.259 124.000,198.169 124.000 C 198.079 124.000,197.966 144.264,197.919 169.032 M259.077 125.000 C 259.077 125.642,259.146 125.904,259.230 125.583 C 259.314 125.263,259.314 124.737,259.230 124.417 C 259.146 124.096,259.077 124.358,259.077 125.000 M200.820 139.667 C 200.820 148.192,200.864 151.679,200.916 147.417 C 200.969 143.154,200.969 136.179,200.916 131.917 C 200.864 127.654,200.820 131.142,200.820 139.667 M186.744 126.000 C 186.744 126.642,186.813 126.904,186.896 126.583 C 186.980 126.263,186.980 125.737,186.896 125.417 C 186.813 125.096,186.744 125.358,186.744 126.000 M152.672 129.083 C 152.667 129.573,152.948 129.657,154.417 129.608 L 156.167 129.550 154.672 129.419 C 153.850 129.347,153.065 129.110,152.927 128.894 C 152.761 128.632,152.675 128.695,152.672 129.083 M137.735 129.247 C 138.965 129.311,141.065 129.311,142.402 129.248 C 143.739 129.184,142.733 129.132,140.167 129.132 C 137.600 129.131,136.506 129.183,137.735 129.247 M174.624 143.897 C 174.369 144.212,174.339 144.358,174.558 144.227 C 174.786 144.090,175.013 144.237,175.103 144.579 C 175.198 144.946,175.271 144.822,175.295 144.250 C 175.340 143.182,175.245 143.132,174.624 143.897 M153.417 151.239 C 153.921 151.315,154.746 151.315,155.250 151.239 C 155.754 151.162,155.342 151.100,154.333 151.100 C 153.325 151.100,152.912 151.162,153.417 151.239 M244.083 151.230 C 244.404 151.314,244.929 151.314,245.250 151.230 C 245.571 151.146,245.308 151.077,244.667 151.077 C 244.025 151.077,243.762 151.146,244.083 151.230 M266.084 154.500 C 266.088 155.233,266.156 155.494,266.236 155.079 C 266.315 154.665,266.312 154.065,266.229 153.746 C 266.146 153.427,266.080 153.767,266.084 154.500 M259.667 155.771 C 259.667 155.828,260.154 156.316,260.750 156.854 L 261.833 157.833 260.854 156.750 C 259.942 155.740,259.667 155.513,259.667 155.771 M233.217 158.583 C 233.132 158.721,234.060 158.792,235.281 158.741 C 239.147 158.581,239.601 158.442,236.436 158.387 C 234.751 158.357,233.303 158.446,233.217 158.583 M168.084 161.500 C 168.088 162.233,168.156 162.494,168.236 162.079 C 168.315 161.665,168.312 161.065,168.229 160.746 C 168.146 160.427,168.080 160.767,168.084 161.500 M253.411 161.667 C 253.411 162.308,253.479 162.571,253.563 162.250 C 253.647 161.929,253.647 161.404,253.563 161.083 C 253.479 160.762,253.411 161.025,253.411 161.667 M168.084 166.500 C 168.088 167.233,168.156 167.494,168.236 167.079 C 168.315 166.665,168.312 166.065,168.229 165.746 C 168.146 165.427,168.080 165.767,168.084 166.500 M201.132 170.000 C 201.132 172.658,201.184 173.746,201.248 172.417 C 201.311 171.088,201.311 168.912,201.248 167.583 C 201.184 166.254,201.132 167.342,201.132 170.000 M164.112 168.333 C 164.112 169.708,164.171 170.271,164.243 169.583 C 164.315 168.896,164.315 167.771,164.243 167.083 C 164.171 166.396,164.112 166.958,164.112 168.333 M253.411 167.333 C 253.411 167.975,253.479 168.237,253.563 167.917 C 253.647 167.596,253.647 167.071,253.563 166.750 C 253.479 166.429,253.411 166.692,253.411 167.333 M146.077 168.333 C 146.077 168.975,146.146 169.237,146.230 168.917 C 146.314 168.596,146.314 168.071,146.230 167.750 C 146.146 167.429,146.077 167.692,146.077 168.333 M318.393 169.417 L 318.453 171.167 318.579 169.575 C 318.661 168.527,318.829 168.061,319.070 168.210 C 319.290 168.346,319.342 168.283,319.198 168.052 C 318.670 167.197,318.337 167.762,318.393 169.417 M81.116 171.000 C 81.116 172.558,81.174 173.196,81.244 172.417 C 81.314 171.637,81.314 170.362,81.244 169.583 C 81.174 168.804,81.116 169.442,81.116 171.000 M249.783 172.000 C 249.783 173.558,249.841 174.196,249.911 173.417 C 249.981 172.637,249.981 171.362,249.911 170.583 C 249.841 169.804,249.783 170.442,249.783 172.000 M142.744 171.333 C 142.744 171.975,142.813 172.237,142.896 171.917 C 142.980 171.596,142.980 171.071,142.896 170.750 C 142.813 170.429,142.744 170.692,142.744 171.333 M239.259 173.578 C 240.043 173.648,241.243 173.647,241.925 173.576 C 242.608 173.504,241.967 173.446,240.500 173.448 C 239.033 173.449,238.475 173.507,239.259 173.578 M281.448 175.833 C 281.449 177.300,281.507 177.859,281.578 177.075 C 281.648 176.291,281.647 175.091,281.576 174.408 C 281.504 173.725,281.446 174.367,281.448 175.833 M152.083 174.239 C 152.587 174.315,153.412 174.315,153.917 174.239 C 154.421 174.162,154.008 174.100,153.000 174.100 C 151.992 174.100,151.579 174.162,152.083 174.239 M156.755 174.239 C 157.261 174.316,158.011 174.314,158.421 174.235 C 158.831 174.156,158.417 174.093,157.500 174.095 C 156.583 174.098,156.248 174.163,156.755 174.239 M227.744 175.000 C 227.744 175.642,227.813 175.904,227.896 175.583 C 227.980 175.262,227.980 174.737,227.896 174.417 C 227.813 174.096,227.744 174.358,227.744 175.000 M118.773 177.000 C 118.773 178.192,118.834 178.679,118.908 178.083 C 118.982 177.487,118.982 176.512,118.908 175.917 C 118.834 175.321,118.773 175.808,118.773 177.000 M142.433 176.667 C 142.433 177.675,142.496 178.088,142.572 177.583 C 142.648 177.079,142.648 176.254,142.572 175.750 C 142.496 175.246,142.433 175.658,142.433 176.667 M325.411 176.000 C 325.411 176.642,325.479 176.904,325.563 176.583 C 325.647 176.262,325.647 175.737,325.563 175.417 C 325.479 175.096,325.411 175.358,325.411 176.000 M285.429 176.833 C 285.431 177.750,285.496 178.085,285.573 177.579 C 285.649 177.072,285.647 176.322,285.568 175.912 C 285.489 175.502,285.426 175.917,285.429 176.833 M103.125 179.500 C 103.125 181.517,103.180 182.299,103.247 181.238 C 103.313 180.177,103.312 178.527,103.245 177.571 C 103.178 176.615,103.124 177.483,103.125 179.500 M318.114 178.833 C 318.115 180.300,318.174 180.859,318.244 180.075 C 318.315 179.291,318.314 178.091,318.242 177.408 C 318.171 176.725,318.113 177.367,318.114 178.833 M115.424 178.667 C 115.424 179.492,115.489 179.829,115.569 179.417 C 115.648 179.004,115.648 178.329,115.569 177.917 C 115.489 177.504,115.424 177.842,115.424 178.667 M166.411 179.333 C 166.411 179.975,166.479 180.237,166.563 179.917 C 166.647 179.596,166.647 179.071,166.563 178.750 C 166.479 178.429,166.411 178.692,166.411 179.333 M81.448 181.167 C 81.449 182.633,81.507 183.192,81.578 182.408 C 81.648 181.624,81.647 180.424,81.576 179.741 C 81.504 179.059,81.446 179.700,81.448 181.167 M325.077 179.667 C 325.077 180.308,325.146 180.571,325.230 180.250 C 325.314 179.929,325.314 179.404,325.230 179.083 C 325.146 178.762,325.077 179.025,325.077 179.667 M251.627 180.594 C 251.517 181.256,251.566 181.567,251.751 181.382 C 251.919 181.214,252.001 180.722,251.932 180.288 C 251.827 179.621,251.781 179.668,251.627 180.594 M146.576 181.241 C 147.168 181.314,148.218 181.315,148.909 181.243 C 149.601 181.171,149.117 181.111,147.833 181.109 C 146.550 181.108,145.984 181.167,146.576 181.241 M159.576 181.241 C 160.168 181.314,161.218 181.315,161.909 181.243 C 162.601 181.171,162.117 181.111,160.833 181.109 C 159.550 181.108,158.984 181.167,159.576 181.241 M247.250 181.235 C 247.662 181.315,248.338 181.315,248.750 181.235 C 249.162 181.156,248.825 181.091,248.000 181.091 C 247.175 181.091,246.838 181.156,247.250 181.235 M285.091 183.000 C 285.091 183.825,285.156 184.162,285.235 183.750 C 285.315 183.338,285.315 182.662,285.235 182.250 C 285.156 181.838,285.091 182.175,285.091 183.000 M297.132 186.833 C 297.132 189.400,297.184 190.406,297.248 189.069 C 297.311 187.732,297.311 185.632,297.247 184.402 C 297.183 183.173,297.131 184.267,297.132 186.833 M201.467 188.167 C 201.467 190.917,201.519 191.997,201.581 190.568 C 201.644 189.139,201.644 186.889,201.581 185.568 C 201.517 184.247,201.466 185.417,201.467 188.167 M115.770 185.500 C 115.772 186.600,115.834 187.010,115.908 186.411 C 115.982 185.812,115.981 184.912,115.905 184.411 C 115.829 183.910,115.768 184.400,115.770 185.500 M317.779 189.000 C 317.779 190.375,317.838 190.938,317.909 190.250 C 317.981 189.563,317.981 188.438,317.909 187.750 C 317.838 187.063,317.779 187.625,317.779 189.000 M281.411 189.000 C 281.411 189.642,281.479 189.904,281.563 189.583 C 281.647 189.262,281.647 188.737,281.563 188.417 C 281.479 188.096,281.411 188.358,281.411 189.000 M77.083 188.912 C 77.954 188.980,79.379 188.980,80.250 188.912 C 81.121 188.843,80.408 188.787,78.667 188.787 C 76.925 188.787,76.212 188.843,77.083 188.912 M103.472 197.500 C 103.473 200.983,103.522 202.363,103.582 200.566 C 103.642 198.769,103.642 195.919,103.581 194.233 C 103.521 192.546,103.472 194.017,103.472 197.500 M323.667 191.611 C 323.667 191.874,322.671 192.022,320.583 192.069 L 317.500 192.137 320.470 192.249 C 323.215 192.352,324.498 192.053,323.894 191.450 C 323.769 191.325,323.667 191.397,323.667 191.611 M85.083 192.230 C 85.404 192.314,85.929 192.314,86.250 192.230 C 86.571 192.146,86.308 192.077,85.667 192.077 C 85.025 192.077,84.762 192.146,85.083 192.230 M77.256 192.575 C 77.855 192.649,78.755 192.648,79.256 192.572 C 79.757 192.495,79.267 192.435,78.167 192.437 C 77.067 192.438,76.657 192.501,77.256 192.575 M115.751 193.833 C 115.754 194.567,115.823 194.827,115.902 194.413 C 115.982 193.998,115.979 193.398,115.896 193.079 C 115.812 192.761,115.747 193.100,115.751 193.833 M314.250 195.569 C 314.662 195.648,315.337 195.648,315.750 195.569 C 316.162 195.489,315.825 195.424,315.000 195.424 C 314.175 195.424,313.837 195.489,314.250 195.569 M87.083 198.905 C 87.587 198.982,88.412 198.982,88.917 198.905 C 89.421 198.829,89.008 198.767,88.000 198.767 C 86.992 198.767,86.579 198.829,87.083 198.905 M307.770 200.500 C 307.772 201.600,307.834 202.010,307.908 201.411 C 307.982 200.812,307.981 199.912,307.905 199.411 C 307.829 198.910,307.768 199.400,307.770 200.500 M257.417 200.896 C 257.737 200.980,258.262 200.980,258.583 200.896 C 258.904 200.813,258.642 200.744,258.000 200.744 C 257.358 200.744,257.096 200.813,257.417 200.896 M141.083 201.230 C 141.404 201.314,141.929 201.314,142.250 201.230 C 142.571 201.146,142.308 201.077,141.667 201.077 C 141.025 201.077,140.762 201.146,141.083 201.230 M160.917 201.235 C 161.329 201.315,162.004 201.315,162.417 201.235 C 162.829 201.156,162.492 201.091,161.667 201.091 C 160.842 201.091,160.504 201.156,160.917 201.235 M173.750 201.230 C 174.071 201.314,174.596 201.314,174.917 201.230 C 175.237 201.146,174.975 201.077,174.333 201.077 C 173.692 201.077,173.429 201.146,173.750 201.230 M236.562 201.249 C 239.713 201.304,244.963 201.304,248.228 201.250 C 251.494 201.195,248.917 201.150,242.500 201.150 C 236.083 201.150,233.411 201.195,236.562 201.249 M297.116 203.667 C 297.116 205.225,297.174 205.862,297.244 205.083 C 297.314 204.304,297.314 203.029,297.244 202.250 C 297.174 201.471,297.116 202.108,297.116 203.667 M148.733 201.581 C 150.328 201.642,153.028 201.643,154.733 201.582 C 156.438 201.521,155.133 201.471,151.833 201.471 C 148.533 201.471,147.138 201.520,148.733 201.581 M310.417 202.243 C 311.104 202.315,312.229 202.315,312.917 202.243 C 313.604 202.171,313.042 202.112,311.667 202.112 C 310.292 202.112,309.729 202.171,310.417 202.243 M201.667 210.333 C 201.667 213.144,201.757 215.354,201.868 215.243 C 202.096 215.015,202.048 205.603,201.817 205.372 C 201.734 205.290,201.667 207.522,201.667 210.333 M163.750 205.909 C 164.438 205.981,165.563 205.981,166.250 205.909 C 166.938 205.838,166.375 205.779,165.000 205.779 C 163.625 205.779,163.063 205.838,163.750 205.909 M169.760 205.912 C 170.636 205.981,171.986 205.980,172.760 205.910 C 173.534 205.840,172.817 205.784,171.167 205.785 C 169.517 205.786,168.884 205.843,169.760 205.912 M225.083 205.896 C 225.404 205.980,225.929 205.980,226.250 205.896 C 226.571 205.813,226.308 205.744,225.667 205.744 C 225.025 205.744,224.762 205.813,225.083 205.896 M241.417 205.909 C 242.104 205.981,243.229 205.981,243.917 205.909 C 244.604 205.838,244.042 205.779,242.667 205.779 C 241.292 205.779,240.729 205.838,241.417 205.909 M259.417 205.896 C 259.737 205.980,260.262 205.980,260.583 205.896 C 260.904 205.813,260.642 205.744,260.000 205.744 C 259.358 205.744,259.096 205.813,259.417 205.896 M155.417 206.239 C 155.921 206.315,156.746 206.315,157.250 206.239 C 157.754 206.162,157.342 206.100,156.333 206.100 C 155.325 206.100,154.912 206.162,155.417 206.239 M144.096 206.580 C 145.156 206.646,146.806 206.646,147.762 206.579 C 148.718 206.512,147.850 206.457,145.833 206.458 C 143.817 206.459,143.035 206.514,144.096 206.580 M193.000 207.771 C 193.000 207.828,193.487 208.316,194.083 208.854 L 195.167 209.833 194.188 208.750 C 193.275 207.740,193.000 207.513,193.000 207.771 M103.077 209.000 C 103.077 209.642,103.146 209.904,103.230 209.583 C 103.314 209.262,103.314 208.737,103.230 208.417 C 103.146 208.096,103.077 208.358,103.077 209.000 M297.411 211.000 C 297.411 211.642,297.479 211.904,297.563 211.583 C 297.647 211.262,297.647 210.737,297.563 210.417 C 297.479 210.096,297.411 210.358,297.411 211.000 M186.167 223.000 C 186.883 223.733,187.544 224.333,187.635 224.333 C 187.727 224.333,187.216 223.733,186.500 223.000 C 185.784 222.267,185.123 221.667,185.031 221.667 C 184.940 221.667,185.451 222.267,186.167 223.000 M280.402 221.914 C 281.632 221.977,283.732 221.978,285.069 221.914 C 286.406 221.851,285.400 221.799,282.833 221.798 C 280.267 221.798,279.173 221.850,280.402 221.914 M272.750 222.230 C 273.071 222.314,273.596 222.314,273.917 222.230 C 274.237 222.146,273.975 222.077,273.333 222.077 C 272.692 222.077,272.429 222.146,272.750 222.230 M268.083 222.563 C 268.404 222.647,268.929 222.647,269.250 222.563 C 269.571 222.479,269.308 222.411,268.667 222.411 C 268.025 222.411,267.762 222.479,268.083 222.563 M235.750 222.909 C 236.438 222.981,237.563 222.981,238.250 222.909 C 238.938 222.838,238.375 222.779,237.000 222.779 C 235.625 222.779,235.063 222.838,235.750 222.909 M245.750 222.914 C 246.987 222.978,249.012 222.978,250.250 222.914 C 251.487 222.850,250.475 222.797,248.000 222.797 C 245.525 222.797,244.512 222.850,245.750 222.914 M261.250 222.908 C 261.846 222.982,262.821 222.982,263.417 222.908 C 264.012 222.834,263.525 222.773,262.333 222.773 C 261.142 222.773,260.654 222.834,261.250 222.908 M113.583 223.235 C 113.996 223.315,114.671 223.315,115.083 223.235 C 115.496 223.156,115.158 223.091,114.333 223.091 C 113.508 223.091,113.171 223.156,113.583 223.235 M131.583 223.244 C 132.362 223.314,133.637 223.314,134.417 223.244 C 135.196 223.174,134.558 223.116,133.000 223.116 C 131.442 223.116,130.804 223.174,131.583 223.244 M142.083 223.572 C 142.587 223.648,143.412 223.648,143.917 223.572 C 144.421 223.496,144.008 223.433,143.000 223.433 C 141.992 223.433,141.579 223.496,142.083 223.572 M150.909 223.907 C 151.501 223.981,152.551 223.982,153.243 223.910 C 153.934 223.838,153.450 223.778,152.167 223.776 C 150.883 223.775,150.317 223.834,150.909 223.907 M170.583 223.902 C 170.996 223.981,171.671 223.981,172.083 223.902 C 172.496 223.822,172.158 223.757,171.333 223.757 C 170.508 223.757,170.171 223.822,170.583 223.902 M198.000 227.306 C 198.000 227.657,197.813 228.020,197.583 228.113 C 197.334 228.213,197.402 228.291,197.750 228.307 C 198.157 228.325,198.333 228.081,198.333 227.500 C 198.333 227.042,198.258 226.667,198.167 226.667 C 198.075 226.667,198.000 226.954,198.000 227.306 M201.693 227.583 C 201.675 228.087,201.858 228.332,202.250 228.328 C 202.610 228.325,202.693 228.229,202.467 228.078 C 202.265 227.944,202.014 227.608,201.910 227.333 C 201.782 226.999,201.711 227.082,201.693 227.583 M199.583 233.241 C 200.179 233.315,201.154 233.315,201.750 233.241 C 202.346 233.167,201.858 233.107,200.667 233.107 C 199.475 233.107,198.987 233.167,199.583 233.241 M203.083 240.563 C 203.404 240.647,203.929 240.647,204.250 240.563 C 204.571 240.479,204.308 240.411,203.667 240.411 C 203.025 240.411,202.762 240.479,203.083 240.563 M352.417 335.833 C 352.421 336.567,352.489 336.827,352.569 336.413 C 352.649 335.998,352.646 335.398,352.562 335.079 C 352.479 334.761,352.414 335.100,352.417 335.833 M47.417 342.167 C 47.421 342.900,47.489 343.161,47.569 342.746 C 47.649 342.331,47.646 341.731,47.562 341.413 C 47.479 341.094,47.414 341.433,47.417 342.167 M335.417 351.230 C 335.737 351.314,336.262 351.314,336.583 351.230 C 336.904 351.146,336.642 351.077,336.000 351.077 C 335.358 351.077,335.096 351.146,335.417 351.230 M307.804 359.456 C 307.708 359.707,307.677 360.720,307.737 361.706 L 307.844 363.500 308.006 361.249 C 308.168 358.984,308.126 358.616,307.804 359.456 M311.064 365.917 L 311.128 368.167 311.247 366.074 C 311.328 364.653,311.484 364.054,311.734 364.208 C 311.957 364.346,312.009 364.284,311.865 364.052 C 311.299 363.136,311.004 363.823,311.064 365.917 M235.417 364.896 C 235.737 364.980,236.262 364.980,236.583 364.896 C 236.904 364.813,236.642 364.744,236.000 364.744 C 235.358 364.744,235.096 364.813,235.417 364.896 M165.417 365.230 C 165.737 365.314,166.262 365.314,166.583 365.230 C 166.904 365.146,166.642 365.077,166.000 365.077 C 165.358 365.077,165.096 365.146,165.417 365.230 M231.417 365.230 C 231.737 365.314,232.262 365.314,232.583 365.230 C 232.904 365.146,232.642 365.077,232.000 365.077 C 231.358 365.077,231.096 365.146,231.417 365.230 M169.921 365.569 C 170.335 365.649,170.935 365.646,171.254 365.562 C 171.573 365.479,171.233 365.414,170.500 365.417 C 169.767 365.421,169.506 365.489,169.921 365.569 M226.921 365.569 C 227.335 365.649,227.935 365.646,228.254 365.562 C 228.573 365.479,228.233 365.414,227.500 365.417 C 226.767 365.421,226.506 365.489,226.921 365.569 M175.088 365.906 C 175.595 365.982,176.345 365.980,176.755 365.901 C 177.165 365.822,176.750 365.760,175.833 365.762 C 174.917 365.765,174.581 365.829,175.088 365.906 M221.421 365.906 C 221.928 365.982,222.678 365.980,223.088 365.901 C 223.498 365.822,223.083 365.760,222.167 365.762 C 221.250 365.765,220.915 365.829,221.421 365.906 M181.917 366.241 C 182.512 366.315,183.487 366.315,184.083 366.241 C 184.679 366.167,184.192 366.107,183.000 366.107 C 181.808 366.107,181.321 366.167,181.917 366.241 M213.917 366.241 C 214.512 366.315,215.487 366.315,216.083 366.241 C 216.679 366.167,216.192 366.107,215.000 366.107 C 213.808 366.107,213.321 366.167,213.917 366.241 M195.768 366.582 C 197.749 366.641,200.899 366.641,202.768 366.582 C 204.637 366.522,203.017 366.474,199.167 366.474 C 195.317 366.475,193.787 366.523,195.768 366.582 M349.095 367.833 C 349.098 368.750,349.163 369.085,349.239 368.579 C 349.316 368.072,349.314 367.322,349.235 366.912 C 349.156 366.502,349.093 366.917,349.095 367.833 M279.587 367.236 C 280.002 367.315,280.602 367.312,280.921 367.229 C 281.239 367.146,280.900 367.080,280.167 367.084 C 279.433 367.088,279.173 367.156,279.587 367.236 M292.083 367.563 C 292.404 367.647,292.929 367.647,293.250 367.563 C 293.571 367.479,293.308 367.411,292.667 367.411 C 292.025 367.411,291.762 367.479,292.083 367.563 M116.479 368.750 L 115.500 369.833 116.583 368.854 C 117.593 367.942,117.820 367.667,117.562 367.667 C 117.505 367.667,117.017 368.154,116.479 368.750 M113.315 372.250 L 112.167 373.500 113.417 372.351 C 114.580 371.282,114.820 371.000,114.565 371.000 C 114.510 371.000,113.947 371.563,113.315 372.250 M61.250 372.569 C 61.663 372.648,62.337 372.648,62.750 372.569 C 63.163 372.489,62.825 372.424,62.000 372.424 C 61.175 372.424,60.837 372.489,61.250 372.569 M340.083 373.563 C 340.404 373.647,340.929 373.647,341.250 373.563 C 341.571 373.479,341.308 373.411,340.667 373.411 C 340.025 373.411,339.762 373.479,340.083 373.563 M229.755 374.239 C 230.261 374.316,231.011 374.314,231.421 374.235 C 231.831 374.156,231.417 374.093,230.500 374.095 C 229.583 374.098,229.248 374.163,229.755 374.239 M248.421 374.906 C 248.928 374.982,249.678 374.980,250.088 374.901 C 250.498 374.822,250.083 374.760,249.167 374.762 C 248.250 374.765,247.915 374.829,248.421 374.906 M258.744 375.667 C 258.744 376.308,258.813 376.571,258.896 376.250 C 258.980 375.929,258.980 375.404,258.896 375.083 C 258.813 374.762,258.744 375.025,258.744 375.667 M172.750 375.243 C 173.438 375.315,174.563 375.315,175.250 375.243 C 175.938 375.171,175.375 375.112,174.000 375.112 C 172.625 375.112,172.063 375.171,172.750 375.243 M190.083 375.563 C 190.404 375.647,190.929 375.647,191.250 375.563 C 191.571 375.479,191.308 375.411,190.667 375.411 C 190.025 375.411,189.762 375.479,190.083 375.563 M213.162 375.914 C 213.893 375.989,214.603 376.226,214.741 376.441 C 214.905 376.701,214.992 376.636,214.995 376.250 C 214.999 375.768,214.725 375.676,213.417 375.723 C 211.848 375.778,211.846 375.780,213.162 375.914 M218.077 377.333 C 218.077 377.975,218.146 378.238,218.230 377.917 C 218.314 377.596,218.314 377.071,218.230 376.750 C 218.146 376.429,218.077 376.692,218.077 377.333 M165.109 379.500 C 165.111 380.783,165.171 381.267,165.243 380.576 C 165.315 379.884,165.314 378.834,165.241 378.243 C 165.167 377.651,165.108 378.217,165.109 379.500 M225.250 377.902 C 225.662 377.981,226.338 377.981,226.750 377.902 C 227.162 377.822,226.825 377.757,226.000 377.757 C 225.175 377.757,224.838 377.822,225.250 377.902 M334.921 377.902 C 335.335 377.982,335.935 377.979,336.254 377.896 C 336.573 377.812,336.233 377.747,335.500 377.751 C 334.767 377.754,334.506 377.823,334.921 377.902 M150.667 378.046 C 150.667 378.136,151.117 378.640,151.667 379.167 C 152.518 379.982,152.667 380.033,152.667 379.507 C 152.667 379.167,152.565 378.990,152.441 379.114 C 152.317 379.238,151.867 379.012,151.441 378.612 C 151.015 378.211,150.667 377.957,150.667 378.046 M246.077 379.000 C 246.077 379.642,246.146 379.904,246.230 379.583 C 246.314 379.262,246.314 378.738,246.230 378.417 C 246.146 378.096,246.077 378.358,246.077 379.000 M86.812 380.083 L 85.833 381.167 86.917 380.188 C 87.926 379.275,88.153 379.000,87.896 379.000 C 87.838 379.000,87.351 379.488,86.812 380.083 M218.429 382.167 C 218.431 383.083,218.496 383.419,218.573 382.912 C 218.649 382.405,218.647 381.655,218.568 381.245 C 218.489 380.835,218.426 381.250,218.429 382.167 M88.812 382.750 L 87.833 383.833 88.917 382.854 C 89.926 381.942,90.153 381.667,89.896 381.667 C 89.838 381.667,89.351 382.154,88.812 382.750 M223.767 383.333 C 223.767 384.342,223.829 384.754,223.905 384.250 C 223.982 383.746,223.982 382.921,223.905 382.417 C 223.829 381.912,223.767 382.325,223.767 383.333 M142.083 382.572 C 142.587 382.648,143.412 382.648,143.917 382.572 C 144.421 382.496,144.008 382.433,143.000 382.433 C 141.992 382.433,141.579 382.496,142.083 382.572 M170.077 383.333 C 170.077 383.975,170.146 384.238,170.230 383.917 C 170.314 383.596,170.314 383.071,170.230 382.750 C 170.146 382.429,170.077 382.692,170.077 383.333 M309.077 383.333 C 309.077 383.975,309.146 384.238,309.230 383.917 C 309.314 383.596,309.314 383.071,309.230 382.750 C 309.146 382.429,309.077 382.692,309.077 383.333 M164.751 386.167 C 164.754 386.900,164.823 387.161,164.902 386.746 C 164.982 386.331,164.979 385.731,164.896 385.413 C 164.812 385.094,164.747 385.433,164.751 386.167 M82.083 385.563 C 82.404 385.647,82.929 385.647,83.250 385.563 C 83.571 385.479,83.308 385.411,82.667 385.411 C 82.025 385.411,81.762 385.479,82.083 385.563 M241.773 388.000 C 241.773 389.192,241.834 389.679,241.908 389.083 C 241.982 388.488,241.982 387.512,241.908 386.917 C 241.834 386.321,241.773 386.808,241.773 388.000 M169.751 387.500 C 169.754 388.233,169.823 388.494,169.902 388.079 C 169.982 387.665,169.979 387.065,169.896 386.746 C 169.812 386.427,169.747 386.767,169.751 387.500 M248.750 387.230 C 249.071 387.314,249.596 387.314,249.917 387.230 C 250.237 387.146,249.975 387.077,249.333 387.077 C 248.692 387.077,248.429 387.146,248.750 387.230 M260.167 390.000 C 260.883 390.733,261.544 391.333,261.635 391.333 C 261.727 391.333,261.216 390.733,260.500 390.000 C 259.784 389.267,259.123 388.667,259.031 388.667 C 258.940 388.667,259.451 389.267,260.167 390.000 M230.254 389.569 C 230.669 389.649,231.269 389.646,231.587 389.562 C 231.906 389.479,231.567 389.414,230.833 389.417 C 230.100 389.421,229.839 389.489,230.254 389.569 M218.806 396.000 C 218.806 399.575,218.855 401.037,218.915 399.250 C 218.975 397.462,218.975 394.537,218.915 392.750 C 218.855 390.962,218.806 392.425,218.806 396.000 M169.417 392.500 C 169.421 393.233,169.489 393.494,169.569 393.079 C 169.649 392.665,169.646 392.065,169.562 391.746 C 169.479 391.427,169.414 391.767,169.417 392.500 M242.107 398.000 C 242.107 399.192,242.167 399.679,242.241 399.083 C 242.315 398.488,242.315 397.512,242.241 396.917 C 242.167 396.321,242.107 396.808,242.107 398.000 M134.421 396.906 C 134.928 396.982,135.678 396.980,136.088 396.901 C 136.498 396.822,136.083 396.760,135.167 396.762 C 134.250 396.765,133.915 396.829,134.421 396.906 M166.254 400.902 C 166.669 400.982,167.269 400.979,167.587 400.896 C 167.906 400.812,167.567 400.747,166.833 400.751 C 166.100 400.754,165.839 400.823,166.254 400.902 M231.750 401.245 C 232.621 401.314,234.046 401.314,234.917 401.245 C 235.787 401.176,235.075 401.120,233.333 401.120 C 231.592 401.120,230.879 401.176,231.750 401.245 M225.750 401.563 C 226.071 401.647,226.596 401.647,226.917 401.563 C 227.237 401.479,226.975 401.411,226.333 401.411 C 225.692 401.411,225.429 401.479,225.750 401.563 M161.417 410.230 C 161.737 410.314,162.262 410.314,162.583 410.230 C 162.904 410.146,162.642 410.077,162.000 410.077 C 161.358 410.077,161.096 410.146,161.417 410.230 M165.254 410.569 C 165.669 410.649,166.269 410.646,166.587 410.562 C 166.906 410.479,166.567 410.414,165.833 410.417 C 165.100 410.421,164.839 410.489,165.254 410.569 M231.587 410.569 C 232.002 410.649,232.602 410.646,232.921 410.562 C 233.239 410.479,232.900 410.414,232.167 410.417 C 231.433 410.421,231.173 410.489,231.587 410.569 M169.917 410.902 C 170.329 410.981,171.004 410.981,171.417 410.902 C 171.829 410.822,171.492 410.757,170.667 410.757 C 169.842 410.757,169.504 410.822,169.917 410.902 M226.917 410.902 C 227.329 410.981,228.004 410.981,228.417 410.902 C 228.829 410.822,228.492 410.757,227.667 410.757 C 226.842 410.757,226.504 410.822,226.917 410.902 M175.417 411.239 C 175.921 411.315,176.746 411.315,177.250 411.239 C 177.754 411.162,177.342 411.100,176.333 411.100 C 175.325 411.100,174.912 411.162,175.417 411.239 M221.421 411.239 C 221.928 411.316,222.678 411.314,223.088 411.235 C 223.498 411.156,223.083 411.093,222.167 411.095 C 221.250 411.098,220.915 411.163,221.421 411.239 M182.750 411.576 C 183.438 411.648,184.563 411.648,185.250 411.576 C 185.938 411.504,185.375 411.445,184.000 411.445 C 182.625 411.445,182.063 411.504,182.750 411.576 M213.750 411.576 C 214.438 411.648,215.563 411.648,216.250 411.576 C 216.938 411.504,216.375 411.445,215.000 411.445 C 213.625 411.445,213.063 411.504,213.750 411.576 M197.069 411.914 C 198.298 411.977,200.398 411.978,201.735 411.914 C 203.073 411.851,202.067 411.799,199.500 411.798 C 196.933 411.798,195.839 411.850,197.069 411.914 " stroke="none" fill="#6b6b6b" fill-rule="evenodd"></path></g></svg>